<?xml version="1.0" encoding="iso-8859-1"?>
<!-- Uploaded to: SVG Repo, www.svgrepo.com, Generator: SVG Repo Mixer Tools -->
<svg height="800px" width="800px" version="1.1" id="Layer_1" xmlns="http://www.w3.org/2000/svg" xmlns:xlink="http://www.w3.org/1999/xlink" 
	 viewBox="0 0 512 512" xml:space="preserve">
<g transform="translate(1 1)">
	<path style="fill:#1CD759;" d="M289.133,349.72v16.213c0,18.773-15.36,34.133-34.133,34.133s-34.133-15.36-34.133-34.133V349.72
		c-76.8,8.533-136.533,73.387-136.533,152.747l0,0h341.333l0,0C425.667,423.107,365.933,358.253,289.133,349.72"/>
	<path style="fill:#15A143;" d="M289.133,349.72v5.12c64,18.773,110.933,77.653,110.933,147.627l0,0h25.6l0,0
		C425.667,423.107,365.933,358.253,289.133,349.72"/>
	<path style="fill:#FFFFFF;" d="M220.867,349.72v5.12c-64,18.773-110.933,77.653-110.933,147.627l0,0h-25.6l0,0
		C84.333,423.107,144.067,358.253,220.867,349.72"/>
	<path style="fill:#FFDD09;" d="M348.867,502.467H161.133v-41.813c0-14.507,11.947-26.453,26.453-26.453h134.827
		c14.507,0,26.453,11.947,26.453,26.453V502.467z"/>
	<path style="fill:#FD9808;" d="M323.267,434.2h-25.6c14.507,0,26.453,11.947,26.453,26.453v41.813h25.6v-41.813
		C349.72,446.147,337.773,434.2,323.267,434.2"/>
	<g>
		<path style="fill:#FFDD09;" d="M255,306.2c-11.947,0-23.893-2.56-34.133-6.827v66.56c0,18.773,15.36,34.133,34.133,34.133
			s34.133-15.36,34.133-34.133v-66.56C278.893,303.64,266.947,306.2,255,306.2"/>
		<path style="fill:#FFDD09;" d="M173.933,127c-2.56,7.68-4.267,17.067-4.267,25.6v68.267c0,46.933,38.4,85.333,85.333,85.333
			s85.333-38.4,85.333-85.333V152.6c0-8.533-1.707-17.92-4.267-25.6H173.933z"/>
	</g>
	<path style="fill:#FD9808;" d="M336.067,127h-25.6c2.56,7.68,4.267,17.067,4.267,25.6v68.267c0,42.667-31.573,77.653-72.533,84.48
		c4.267,0.853,8.533,0.853,12.8,0.853c46.933,0,85.333-38.4,85.333-85.333V152.6C340.333,144.067,338.627,134.68,336.067,127"/>
	<g>
		<path style="fill:#FCC309;" d="M348.867,161.133c-3.413,0-5.973,0.853-8.533,1.707v47.787c2.56,0.853,5.12,1.707,8.533,1.707
			c14.507,0,25.6-11.093,25.6-25.6C374.467,172.227,363.373,161.133,348.867,161.133"/>
		<path style="fill:#FCC309;" d="M161.133,212.333c3.413,0,5.973-0.853,8.533-1.707V162.84c-2.56-0.853-5.12-1.707-8.533-1.707
			c-14.507,0-25.6,11.093-25.6,25.6C135.533,201.24,146.627,212.333,161.133,212.333"/>
		<path style="fill:#FCC309;" d="M416.28,107.373c-37.547-21.333-70.827-48.64-102.4-78.507C299.373,16.067,278.893,7.533,255,7.533
			s-44.373,8.533-58.88,21.333c-31.573,29.013-64.853,57.173-102.4,78.507L58.733,127H127h256h68.267L416.28,107.373z"/>
	</g>
	<path style="fill:#FD9808;" d="M416.28,107.373c-37.547-21.333-70.827-48.64-102.4-78.507C299.373,16.067,278.893,7.533,255,7.533
		c-5.973,0-11.947,0.853-17.067,1.707c16.213,2.56,31.573,10.24,41.813,19.627c31.573,29.013,64.853,57.173,102.4,78.507
		L417.133,127h34.133L416.28,107.373z"/>
	<path style="fill:#FFFFFF;" d="M93.72,107.373c37.547-21.333,70.827-48.64,102.4-78.507c14.507-12.8,34.987-21.333,58.88-21.333
		c5.973,0,11.947,0.853,17.067,1.707c-16.213,2.56-31.573,10.24-41.813,19.627C198.68,57.88,165.4,86.04,127.853,107.373L92.867,127
		H58.733L93.72,107.373z"/>
	<path d="M425.667,511H84.333c-5.12,0-8.533-3.413-8.533-8.533c0-82.773,62.293-151.893,144.213-161.28
		c2.56,0,5.12,0.853,6.827,1.707c1.707,0.853,2.56,4.267,2.56,5.973v17.067c0,14.507,11.093,25.6,25.6,25.6s25.6-11.093,25.6-25.6
		V349.72c0-2.56,0.853-5.12,2.56-5.973c1.707-0.853,4.267-2.56,6.827-1.707c81.92,8.533,144.213,77.653,144.213,160.427
		C434.2,507.587,430.787,511,425.667,511z M92.867,493.933h324.267c-4.267-67.413-52.907-122.88-119.467-133.973v5.973
		c0,23.893-18.773,42.667-42.667,42.667s-42.667-18.773-42.667-42.667v-5.973C146.627,371.053,97.133,426.52,92.867,493.933z"/>
	<path d="M255,408.6c-23.893,0-42.667-18.773-42.667-42.667v-66.56c0-2.56,1.707-5.973,4.267-6.827
		c2.56-0.853,5.12-1.707,7.68-0.853c19.627,8.533,41.813,8.533,61.44,0c2.56-0.853,5.973-0.853,7.68,0.853
		c2.56,1.707,4.267,4.267,4.267,6.827v66.56C297.667,389.827,278.893,408.6,255,408.6z M229.4,311.32v54.613
		c0,14.507,11.093,25.6,25.6,25.6s25.6-11.093,25.6-25.6V311.32C264.387,315.587,245.613,315.587,229.4,311.32z"/>
	<path d="M451.267,135.533H58.733c-4.267,0-7.68-2.56-8.533-5.973c-0.853-3.413,0.853-7.68,4.267-9.387l34.987-19.627
		c31.573-17.92,63.147-41.813,100.693-76.8C206.36,7.533,230.253-1,255-1s48.64,8.533,64.853,23.893
		c37.547,34.987,69.12,58.88,100.693,76.8l34.987,19.627c3.413,1.707,5.12,5.973,4.267,9.387
		C458.947,132.973,455.533,135.533,451.267,135.533z M91.16,118.467h327.68l-6.827-4.267l0,0
		c-33.28-18.773-64.853-43.52-104.107-79.36C295.107,22.893,275.48,16.067,255,16.067s-40.107,6.827-52.907,18.773
		C162.84,70.68,131.267,95.427,97.987,114.2L91.16,118.467z"/>
	<path d="M255,314.733c-52.053,0-93.867-41.813-93.867-93.867V152.6c0-9.387,1.707-18.773,4.267-28.16
		c0.853-3.413,4.267-5.973,8.533-5.973H336.92c3.413,0,6.827,2.56,8.533,5.973c2.56,9.387,4.267,18.773,4.267,28.16v68.267
		C348.867,272.92,307.053,314.733,255,314.733z M179.907,135.533c-0.853,5.973-1.707,11.093-1.707,17.067v68.267
		c0,42.667,34.133,76.8,76.8,76.8s76.8-34.133,76.8-76.8V152.6c0-5.973-0.853-11.093-1.707-17.067H179.907z"/>
	<path d="M348.867,511H161.133c-5.12,0-8.533-3.413-8.533-8.533v-41.813c0-18.773,15.36-34.987,34.987-34.987h134.827
		c18.773,0,34.987,15.36,34.987,34.987v41.813C357.4,507.587,353.987,511,348.867,511z M169.667,493.933h170.667v-33.28
		c0-9.387-7.68-17.92-17.92-17.92H187.587c-9.387,0-17.92,7.68-17.92,17.92V493.933z"/>
	<path d="M323.267,442.733c-5.12,0-8.533-3.413-8.533-8.533v-75.093c0-5.12,3.413-8.533,8.533-8.533c5.12,0,8.533,3.413,8.533,8.533
		V434.2C331.8,439.32,328.387,442.733,323.267,442.733z"/>
	<path d="M186.733,442.733c-5.12,0-8.533-3.413-8.533-8.533v-75.093c0-5.12,3.413-8.533,8.533-8.533c5.12,0,8.533,3.413,8.533,8.533
		V434.2C195.267,439.32,191.853,442.733,186.733,442.733z"/>
	<path d="M348.867,220.867c-3.413,0-7.68-0.853-11.093-1.707s-5.973-4.267-5.973-7.68v-47.787c0-3.413,2.56-6.827,5.973-7.68
		C361.667,147.48,383,165.4,383,188.44C383,205.507,367.64,220.867,348.867,220.867z M348.867,169.667V203.8
		c9.387,0,17.067-7.68,17.067-17.067C365.933,177.347,358.253,169.667,348.867,169.667z"/>
	<path d="M161.133,220.867c-18.773,0-34.133-15.36-34.133-34.133c0-22.187,22.187-40.107,45.227-32.427
		c3.413,0.853,5.973,4.267,5.973,7.68v47.787c0,3.413-2.56,6.827-5.973,7.68C168.813,220.013,164.547,220.867,161.133,220.867z
		 M161.133,169.667c-9.387,0-17.067,7.68-17.067,17.067c0,9.387,7.68,17.067,17.067,17.067V169.667z"/>
	<path d="M203.8,476.867c-5.12,0-8.533-3.413-8.533-8.533c0-5.12,3.413-8.533,8.533-8.533h102.4l0,0c5.12,0,8.533,3.413,8.533,8.533
		c0,5.12-3.413,8.533-8.533,8.533H203.8L203.8,476.867z"/>
	<path d="M331.8,101.4c-5.12,0-8.533-3.413-8.533-8.533c0-42.667,34.133-76.8,76.8-76.8c5.12,0,8.533,3.413,8.533,8.533
		s-3.413,8.533-8.533,8.533c-33.28,0-59.733,26.453-59.733,59.733C340.333,97.987,336.92,101.4,331.8,101.4z"/>
</g>
</svg>