<svg xmlns="http://www.w3.org/2000/svg" viewBox="0 0 512 512"><title>Artboard 136</title><g id="Herbal"><path d="M256,423.78514c0-104.44725,84.67122-189.11847,189.11847-189.11847h3.64133a41.90687,41.90687,0,0,1,41.90687,41.90687v3.64132c0,104.44725-84.67123,189.11847-189.11847,189.11847h-3.64133A41.90687,41.90687,0,0,1,256,427.42646v-3.64132Z" style="fill:#378900"/><rect x="384" y="341.33333" width="85.33333" height="21.33333" rx="10.66666" ry="10.66666" transform="translate(853.33333 704) rotate(-180)" style="fill:#216600"/><rect x="341.33333" y="384" width="85.33333" height="21.33333" rx="10.66666" ry="10.66666" transform="translate(768 789.33333) rotate(-180)" style="fill:#216600"/><path d="M281.7513,443.582,426.66667,298.66667,443.582,281.7513a15.08495,15.08495,0,1,1,21.33333,21.33334L448,320,303.08464,464.91536a15.08569,15.08569,0,0,1-21.33334,0v-.0013A15.08413,15.08413,0,0,1,281.7513,443.582Z" style="fill:#216600"/><path d="M338.55859,297.7627a10.62842,10.62842,0,0,0-7.237,2.83333l-.0039.00358-.11458.10579-.00847.00814a169.26588,169.26588,0,0,0-15.847,16.83041l-.00847.01009c-.0319.03971-.0651.08007-.09765.11946l-.00391.00521c-.06836.08333-.13672.16732-.20508.25065l-.01237.0153c-.02864.03483-.05729.07-.08528.10514l-.01888.02279c-.06511.08008-.13086.16081-.196.24121l-.02083.02572c-.026.03222-.05274.06478-.07878.09733l-.02018.02539c-.0651.08008-.12956.16016-.19466.24056l-.02149.027c-.02473.0306-.04882.06022-.07291.09082l-.0293.03613-.07682.096-.01888.02279c-.0293.03743-.05925.07454-.08919.11165l-.03581.0446c-.01953.02506-.03972.0498-.0599.07487l-.0345.04362c-.02214.028-.04427.05533-.06641.083l-.02865.03581c-.02929.03678-.05859.07324-.08723.11-.01368.01627-.02474.0306-.03777.04687-.01692.02181-.0358.04492-.05273.06673l-.04492.05632c-.01628.02018-.03255.04069-.04818.0612-.01693.0205-.03581.04492-.05208.06575-.02474.0306-.04883.06153-.07357.09212l-.04818.0612-.04036.05143-.05356.06739-.03173.04069-.192.24381-.02995.03841-.0586.07455-.028.03581c-.06836.08691-.13542.17252-.20313.25944l-.01692.02148c-.01888.02474-.04558.05892-.06511.08366l-.01888.02409c-.07422.09537-.14323.18424-.21745.28l-.0039.0052c-.026.03321-.04688.06055-.07292.09375l-.00846.01107c-.09961.12858-.20313.263-.30274.39225l-.00065.001q-4.31542,5.60742-8.15625,11.57324a10.6665,10.6665,0,0,0,17.96224,11.50879A147.7749,147.7749,0,0,1,345.80208,316.262a10.66681,10.66681,0,0,0-7.24349-18.49934ZM448,256h-3.04167c-.02864,0-.0651,0-.09375.00033h-.1289l-.05469.00032h-.07422l-.05859.00033-.07292.00032-.05534.00033-.07487.00032h-.056l-.07682.00065h-.05208l-.07813.00066-.05338.00032-.084.00065-.04427.00033c-.03971,0-.071.00032-.11068.00065l-.02018.00032-.13021.001-.0306.00033-.09765.00065-.04623.00065-.08593.00065-.04623.00065-.082.001-.05143.00032-.07878.001-.05534.00065-.071.001-.05924.00065-.07422.001-.054.00065-.07943.00131-.04948.00065-.08789.0013-.04231.00065-.10482.00163-.02474.00032c-.04557.00066-.08529.00131-.13021.00228l-.02734.00033c-.03386.00065-.069.0013-.10287.00163l-.04232.001-.08593.0013-.05209.001-.07487.00163-.05989.001-.07031.0013-.056.0013-.07618.00163-.05338.001-.07943.00163-.04883.001-.08333.00195-.04688.001-.10026.00228-.02669.00065-.12825.00293h-.00261c-.04492.0013-.08659.00228-.13151.00325l-.03581.001-.09049.00228-.05534.0013-.07617.00195-.05339.00163-.07421.00195-.0573.00131-.07356.00227-.056.00131-.07162.00227-.05794.00163-.07552.002-.05274.00162-.07421.00228-.0573.00163-.07747.00228-.04948.00163-.08724.00293-.043.0013-.1263.0039-.03906.00131-.09115.00293-.04752.00162-.08138.00293-.04883.00163-.08138.0026-.05078.002-.07878.0026-.05208.002-.07292.0026-.0599.00228-.07031.0026-.05729.00228-.071.0026-.0599.00228-.07422.00293-.05143.002-.0905.00358-.03906.0013c-.04492.002-.08463.00358-.12956.00521l-.01041.00065-.11589.00456-.04883.002-.08007.00358-.05274.00228-.07487.00293-.05664.0026-.07226.00293-.05925.00261-.06706.00293-.06119.00293-.07162.00325-.05534.00228-.07747.00358-.04948.00228-.08724.00423-.04167.00195c-.028.00131-.06054.00261-.08854.00424l-.04166.00195-.12631.00586-.04362.00228-.084.0039-.0612.00326-.0651.00325-.06771.00326-.05925.00293-.06966.00358-.05924.00325-.06446.00326-.0638.00325-.0664.00359-.0599.00292-.06771.00359-.05794.00325-.07162.00391-.05664.00293-.06836.0039-.06445.00358-.06445.00358-.056.00293c-.04427.00261-.08789.00521-.13216.00749l-.06055.00358-.06445.00358-.06446.00391-.0638.00358-.06315.00358-.0638.00391-.06511.0039-.0638.00358-.06185.00391-.06575.00391-.0638.0039-.06446.00391-.06119.0039-.06641.00391-.06185.00391-.06575.00423-.0625.00391-.06381.0039-.07617.00488c-.03776.00261-.07422.00489-.112.00717l-.06185.00423-.0664.00423-.0612.00391-.06315.00423-.06511.00455-.06315.00391-.0651.00456-.06055.00423-.06706.00456-.06184.0039-.06771.00489-.05729.0039-.07227.00489-.05664.00423-.07487.00521-.05078.00358-.08724.00618-.041.00293c-.04427.00326-.07617.00553-.12044.00846l-.03255.00261c-.02735.002-.071.00488-.09831.00716l-.05794.00423-.07292.00521-.05338.00391-.07227.00553-.05794.00423-.07032.00521-.05989.00456-.06511.00488-.06249.00488-.06836.00521-.0573.00456-.07291.00553-.05339.00423-.07877.00619-.04883.00391-.084.00651-.04362.00358-.11588.00911-.01107.001-.12825.01041-.03516.00293c-.028.002-.0625.00489-.08984.00717l-.054.00455-.07292.00586-.05989.00488-.06641.00554-.05924.00488-.069.00586-.05924.00521-.06836.00553-.05794.00489-.06836.00586-.06055.0052-.07031.00619-.054.00456-.08008.00716-.04817.00423-.09375.00814-.03321.00293-.12239.01074-.0586.00553-.07031.00619-.05729.00521-.06836.00618-.05859.00521-.07031.00651-.0573.00521-.06966.00618-.05469.00521-.07682.00716-.05078.00456-.07357.00684-.05468.0052-.07292.00684-.05469.00521-.07161.00683-.056.00521-.071.00684-.10026.00976-.07812.00749-.05469.00554-.07227.00683-.056.00554-.07032.00683-.0625.00619-.06185.00618-.0651.00651-.0612.00619-.06575.00651-.06055.00618-.0651.00651-.0599.00619-.06706.00683-.06185.00619-.06185.00651-.07226.00716-.05339.00553c-.02734.00293-.067.00716-.0944.00977l-.03125.00325c-.04362.00456-.08138.00847-.125.01335l-.04427.00456-.08138.00846-.05794.00619-.06706.00716-.06055.00651-.0677.00716-.0586.00651-.0651.00684-.0625.00683-.06706.00716-.056.00619-.07226.00781-.05469.00619-.07487.00813-.05143.00586-.07683.00847-.04948.00553-.095.01074-.03.00326-.12565.014-.04427.0052-.08138.00912-.054.00618-.07162.00814-.05729.00651-.06966.00814-.05469.00618-.07161.00847-.05665.00651-.069.00814-.05794.00683-.06706.00781-.05924.00684-.07227.00879-.05143.00586-.07812.00944-.04883.00586-.09115.01074-.03385.00423-.125.015-.03386.00423c-.03255.0039-.06119.00716-.09375.01139l-.04231.00521c-.02735.00326-.05534.00651-.08269.01009l-.05143.00619-.07422.00911-.05273.00651-.07357.00912-.05273.00651-.07617.00976-.04883.00586-.07617.00977-.05144.00651-.07682.00944-.04883.00618-.07877.01009-.04818.00619-.08985.01139-.03515.00456-.12435.01595-.043.00553-.08268.01075-.05143.00683-.07357.00944-.05469.00716-.07226.00944-.05274.00684-.07292.00976-.054.00717-.07292.00976-.05208.00684-.07292.00976-.05469.00749-.07421.00977-.04948.00651-.08008.01106-.04623.00619-.0944.01269-.02995.00424c-.04361.00585-.082.01106-.12565.01725l-.01627.00228-.112.0153-.026.00358-.09831.01367-.041.00553-.08528.012-.04558.00618-.07747.01074-.05208.00749-.07552.01074-.04883.00684-.07682.01074-.04948.00716-.07943.01107-.04557.00684-.07878.01106-.04818.00684-.09244.01335-.0306.00455c-.08724.01237-.16472.02377-.252.03646l-.041.00619c-.02735.0039-.05534.00781-.08268.012l-.05079.00749-.07617.01107-.04622.00683-.08073.01205-.04557.00651-.082.01237-.04231.00618-.082.01237-.04688.00716-.082.01237-.04036.00586-.0879.01335-.04036.00618-.09245.014-.0319.00488c-.03776.00586-.07357.0114-.11133.01693l-.02343.00358-.11719.01823-.03255.00488-.0905.014-.04557.00716-.08138.0127-.043.00651-.08268.013-.04362.00683-.08464.013-.04036.00651-.08464.01334-.04167.00651-.08593.01367-.04037.00651-.08724.01368-.03776.00618-.099.01595-.026.00391-.25455.04134-.00521.00065-.12045.01953-.02408.00391-.099.01627-.03581.00586-.09115.015-.0358.00586-.0892.01465-.03841.00651-.08593.014-.043.00716-.08464.01433-.03776.00618-.09635.01628-.028.00456-.11458.0192-.00912.00163c-.12955.02181-.2539.043-.38281.0651l-.01953.00326-.10547.0179-.02995.00521-.0944.01628-.0345.00586c-.0319.00585-.0599.01041-.09245.01627l-.03385.00586-.0905.01563-.03581.00618-.09375.01628-.03125.00553-.09635.01693-.0293.00521c-.03776.00651-.069.012-.10612.01888l-.01823.00325c-.12955.02279-.24935.04395-.37825.06706l-.0293.00521-.0957.01725-.03386.00618-.09049.01628-.03841.00684-.08724.016-.03841.00683-.08594.01563-.041.00749-.08724.01595-.0345.00651c-.03255.00586-.06511.01171-.09766.0179l-.02669.00488-.11068.02018-.013.00261c-.1289.02376-.2526.04687-.38151.071l-.01237.00228-.11263.02116-.02279.00423-.10156.01921-.02669.00488-.10026.01921-.02734.0052c-.03191.00586-.06381.01205-.09571.01823l-.03125.00586-.099.01888-.02474.00456-.10156.01953-.02474.00488-.11719.02247-.0052.001c-.12826.02474-.25391.04916-.38217.07422l-.01041.002-.11393.02246-.02149.00424-.10482.0205-.02278.00456c-.0319.00619-.07031.01367-.10222.02018l-.02474.00489-.099.01953-.02995.00586-.09636.0192-.02734.00554-.10221.0205-.02279.00456-.11589.02311-.00651.00131c-.12825.02571-.25455.05143-.38281.07747l-.0013.00033c-.04232.00878-.08073.0166-.1237.02506l-.01367.00293-.10677.02181-.03.00619-.0957.01985-.0293.00586c-.0319.00651-.0638.013-.0957.01986l-.0293.00586c-.0319.00683-.06836.01432-.10026.02083l-.02213.00456c-.03191.00683-.07618.016-.10808.02246l-.01627.00358c-.21289.04427-.41862.08757-.63151.13281l-.00717.00163-.11653.02474-.01693.00358-.10677.02279-.02214.00488-.10156.02181-.02539.00553-.10482.02246-.01692.00358-.10873.02377-.01758.00358c-.21223.0459-.41862.09114-.63085.138h-.00066l-.12369.02734-.00912.00228c-.04232.00912-.07487.0166-.11719.026l-.00911.002-.11393.02539-.01563.00325-.11393.02539-.00977.00228-.11718.02637-.00847.002c-.2539.057-.502.11328-.7552.17155l-.01107.00261-.11589.02669-.00846.002-.11393.02637-.01563.00358-.11393.02637-.00781.002c-.33789.07845-.67123.1569-1.00782.2373l-.0039.001-.12305.0293-.00195.00065a166.24473,166.24473,0,0,0-20.67839,6.40462,10.66656,10.66656,0,1,0,7.63281,19.9209,145.42937,145.42937,0,0,1,52.15951-9.59473H448a1.16688,1.16688,0,0,1,.41471.05241,10.66667,10.66667,0,0,0,8.19792-19.69531q-.3252-.13526-.6556-.26042l-.00325-.0013-.0586-.02181-.00195-.001-.05925-.02181-.002-.001-.05794-.02149-.00456-.00162-.05664-.02084-.00456-.00162-.05664-.02051-.00521-.002-.05664-.02018-.00586-.00195-.05468-.01953-.00847-.00293-.05208-.01856-.01107-.0039-.05143-.01791-.00977-.00325-.05273-.01823-.00911-.00326-.05339-.01823-.00911-.00293-.05274-.0179-.00976-.00358-.05274-.01758-.00846-.0026-.054-.01823-.00911-.00293-.05274-.01725-.00976-.00326-.05013-.01627-.01368-.00424-.04752-.01562-.01432-.00423-.04883-.01563-.01172-.0039-.04948-.01563-.01367-.00423-.04818-.015-.01367-.00423-.04883-.0153-.01432-.00423-.04883-.015-.01432-.00456-.04753-.01432-.01758-.00489-.04427-.01367-.02018-.00586-.04427-.013-.01888-.00553-.04427-.013-.01953-.00554-.04427-.013-.02019-.00586-.04362-.01237-.02083-.00586-.04362-.01236-.02018-.00554-.04362-.01237-.02084-.00553-.04427-.01237-.01953-.00554-.04362-.01171-.02213-.00586-.043-.01172-.02083-.00554-.04362-.01172-.02084-.00553-.04362-.01139-.02148-.00554-.043-.01106-.02214-.00586-.04036-.01042-.02409-.00619-.04036-.01009-.02344-.00586-.04037-.01009-.02539-.00651-.0358-.00879-.02995-.00716-.03516-.00879-.02929-.00683-.03581-.00879-.02865-.00684-.03646-.00846-.02864-.00684-.03581-.00846-.0293-.00651-.03645-.00879-.0267-.00586-.03841-.00879-.02734-.00618-.03841-.00879-.02605-.00586-.03776-.00814-.02864-.00651-.03776-.00814-.02539-.00553-.04037-.00879-.02344-.00488-.04427-.00944-.02083-.00424-.04427-.00911-.02279-.00488-.04427-.00912-.02148-.00423-.04427-.00911-.02214-.00456-.04492-.00879-.02148-.00423-.04428-.00879-.02278-.00456-.04427-.00846-.02214-.00423-.04492-.00847-.02148-.00423-.04558-.00846-.02148-.00391-.04427-.00814-.02279-.00423-.04492-.00781-.02148-.00391-.04558-.00814-.02083-.00358-.04753-.00846-.01823-.00326-.04427-.00748-.02474-.00391-.04362-.00749-.02083-.00358-.04557-.00748-.02084-.00326-.04752-.00781-.01823-.00293-.04623-.00716-.02148-.00358-.04687-.00716-.01758-.00261-.04948-.00781-.01693-.00261-.05013-.00748-.01432-.002-.05209-.00748-.01627-.00261-.05208-.00748-.01433-.002-.05273-.00748-.01563-.00228-.05273-.00716-.015-.002-.05273-.00716-.01562-.00195-.05274-.00684-.015-.002-.05339-.00684-.015-.00195-.05339-.00684-.01432-.00162-.05274-.00651-.01692-.002-.05209-.00618-.01562-.00195-.05339-.00619-.015-.00163-.054-.00618-.01432-.00163-.054-.00586-.015-.00163-.054-.00586-.01367-.0013-.05534-.00586-.013-.0013-.05664-.00553-.01107-.00131-.05664-.0052-.01432-.00163-.05534-.00521-.01237-.001-.05729-.0052-.01107-.001-.05794-.00521-.01042-.001-.05859-.00488-.01107-.001-.05794-.00488-.00846-.00065-.0599-.00488-.00846-.00065-.0599-.00456-.00781-.00033-.0599-.00455-.00911-.00065-.0599-.00424L449.61,256.055l-.0599-.0039-.00977-.00065-.05989-.00391-.00912-.00065-.05989-.00358-.01042-.00065-.05989-.00358-.00977-.00066-.0599-.00325-.00976-.00033-.06055-.00325-.00911-.00065-.06055-.00293-.00977-.00033-.06054-.00293-.00912-.00032-.06119-.00261-.00847-.00032-.06185-.00261-.00846-.00032-.0612-.00228-.00976-.00033-.06055-.002-.00912-.00032-.06184-.002-.00847-.00032-.06185-.00163-.00911-.00033-.06185-.00162-.00846-.00033-.06185-.0013h-.00847l-.0625-.0013-.00781-.00033-.06315-.001H448.349l-.0638-.001h-.00586l-.06576-.00065h-.0039l-.06706-.00065h-.00326L448.071,256H448Z" style="fill:#9fe27c"/><path d="M472.62435,245.751a10.66687,10.66687,0,0,0-8.14,17.554,20.3098,20.3098,0,0,1,4.849,13.26856v3.64127C469.33333,372.7321,394.0651,448,301.54818,448H297.9069a20.82458,20.82458,0,0,1-3.71289-.3304,10.66663,10.66663,0,0,0-3.79948,20.99218,41.97934,41.97934,0,0,0,5.0638.60124h.002l.054.00326.00847.00032.05208.00293.00781.00033.054.00293.00391.00032c.0944.00488.18945.00977.28385.014l.013.00065.04427.002.01888.001.04167.002.02213.001.03907.00163.02343.001.04037.00163.02083.001.04037.00163.02083.00065c.04753.002.09375.00358.14128.00521l.02278.001.03516.001.02929.0013.03386.001.02864.001.03516.001.02865.001.0345.001.02865.001.0345.001.02995.00065.0332.001.0293.00065.05925.00163.03515.001.028.00065.03645.00065.0293.00065.03451.001.02995.00032.03385.00066.03125.00065.0332.00065.0293.00065.03646.00065.028.00032.03906.00066.02474.00032.04428.00065.02278.00033.06055.00065h.01888l.04427.00065.02669.00033.03841.00032h.026l.03841.00033.026.00032h.03971l.02474.00033h.06511l.04362.00032h3.72591c104.44726,0,189.11849-84.67122,189.11849-189.11849v-3.79622l-.00065-.03809v-.09179l-.00066-.03809v-.026l-.00065-.03874v-.02636l-.00065-.042V276.096l-.00065-.04753v-.02636l-.0013-.05469v-.02084l-.00065-.04264-.00065-.02637-.00065-.03873v-.02637l-.00065-.03711-.00066-.029-.00065-.03581-.00065-.02734-.00065-.03776-.00065-.02669-.0013-.04037-.00065-.02376-.00065-.043-.00066-.02181-.00195-.0625-.00065-.02083-.00065-.043-.0013-.027-.00065-.03679-.00065-.028-.00131-.03581-.0013-.029-.00065-.03646-.0013-.02636-.0013-.03842-.00065-.02636-.00131-.04037-.0013-.02278-.0013-.0459-.00065-.01888c-.0013-.02084-.002-.04265-.00261-.06348l-.00065-.01367-.002-.04948-.00065-.02279-.00195-.04231-.00131-.02279-.0013-.04-.0013-.026-.00195-.03906-.00131-.02507-.0013-.03906-.0013-.02507-.002-.03971-.00131-.02474-.002-.03841-.0013-.026-.00326-.06055-.0013-.02832-.00195-.03548-.0013-.0293-.002-.03418-.002-.0293-.00195-.03385-.002-.03125-.0013-.03158-.002-.0319-.00195-.03157-.002-.0319-.00195-.03223-.002-.03027-.002-.03451-.00195-.02962-.0026-.04525-.00326-.04069-.00195-.03776-.002-.02637-.0026-.03743-.00195-.028-.00261-.0345-.002-.02962-.002-.03386-.00261-.03027-.00195-.03223-.0026-.0306-.002-.03157-.0026-.0332-.002-.02312-.00261-.04036-.00065-.00358-.00651-.08919-.0026-.028-.00261-.03353-.0026-.02929-.00261-.03321-.00195-.02929-.00326-.03451-.002-.028-.00325-.03386-.002-.02864-.00325-.03516-.002-.02572-.00325-.03646-.0026-.02506-.00326-.03776-.002-.02474-.00586-.06445-.00326-.03093-.0026-.03515-.00261-.028-.0039-.03613-.002-.02442-.0039-.03841-.00195-.02376-.00391-.03939-.00195-.02018-.00456-.04167-.002-.01953-.00391-.04232-.0013-.01595-.00521-.0459v-.00423c-.00586-.05338-.01107-.10612-.01693-.1595l-.0013-.01563-.00456-.04-.00195-.02246-.00456-.03971-.0026-.02149-.00391-.03841-.0026-.02376-.00456-.03874-.0026-.02213-.00391-.03874-.0026-.02148-.00456-.042-.00065-.0052c-.00586-.05176-.01237-.10417-.01823-.15593l-.002-.01758-.00585-.04427-.00131-.0153-.0052-.04264-.00261-.02051-.00521-.04069-.002-.01855-.00521-.04232-.0026-.01888-.00521-.04362-.0013-.01074c-.00977-.07487-.01888-.14844-.0293-.223v-.00261c-.002-.01595-.00391-.03157-.00651-.0472l-.002-.01432-.00586-.04525-.002-.01562-.00586-.042-.0026-.01985-.00586-.043-.002-.01433-.00651-.0472-.0013-.00781c-.01563-.11328-.03191-.22558-.04818-.33854l-.0013-.00684-.00717-.05208-.0013-.00651-.00781-.05338-.00065-.00391q-.03027-.20166-.0625-.40267h0l-.00912-.05566-.00065-.00424-.00911-.05468v-.00228a41.74752,41.74752,0,0,0-9.3431-20.24252,10.6438,10.6438,0,0,0-8.15039-3.77994Z" style="fill:#216600"/><path d="M239.08464,464.91536l187.582-187.582L443.582,260.418a15.08494,15.08494,0,0,1,21.33333,21.33333L448,298.66667,260.418,486.2487a15.0857,15.0857,0,0,1-21.33333,0v-.0013A15.08412,15.08412,0,0,1,239.08464,464.91536Z" style="fill:#6ec030"/><rect x="405.33333" y="256" width="21.33333" height="64" rx="10.66666" ry="10.66666" transform="translate(832 576) rotate(-180)" style="fill:#6ec030"/><rect x="298.66667" y="341.33333" width="21.33333" height="85.33333" rx="10.66666" ry="10.66666" transform="translate(618.66667 768) rotate(180)" style="fill:#6ec030"/><rect x="362.66667" y="277.33333" width="21.33333" height="85.33333" rx="10.66666" ry="10.66666" transform="translate(746.66667 640) rotate(-180)" style="fill:#6ec030"/><rect x="384" y="320" width="85.33333" height="21.33333" rx="10.66666" ry="10.66666" transform="translate(853.33333 661.33333) rotate(-180)" style="fill:#6ec030"/><rect x="341.33333" y="362.66667" width="85.33333" height="21.33333" rx="10.66666" ry="10.66666" transform="translate(768 746.66667) rotate(-180)" style="fill:#6ec030"/><path d="M94.79783,135.32044H417.20218A120.67942,120.67942,0,0,1,537.8816,255.99987v.00025A120.67944,120.67944,0,0,1,417.20217,376.67956H94.79783A120.67944,120.67944,0,0,1-25.8816,256.00012v-.00024A120.67944,120.67944,0,0,1,94.79783,135.32044Z" transform="translate(-106.03867 255.99997) rotate(-44.99999)" style="fill:#c9e5fc"/><path d="M447.98828,97.00423c-.42838,0-.86068.00635-1.29167.01921a42.66715,42.66715,0,0,0-41.37955,43.91634,35.12255,35.12255,0,0,1-10.33659,26.06657l-227.974,227.97444a34.75034,34.75034,0,0,1-23.92383,10.33676,42.66685,42.66685,0,0,0,1.24089,85.31494q.63085,0,1.26562-.01856l.041-.00114.12239-.00374.05469-.00163.11979-.0039.05664-.00179.11914-.00391.05925-.00212.11654-.0039.05859-.00212.11784-.00423.05924-.00228.11719-.00439.05859-.00228.11524-.0044.06185-.00244.09961-.00407.07617-.00309.0931-.00391.08463-.00358.084-.00374.08984-.00391.08594-.0039.08854-.00391.08529-.00391.08463-.00406.0905-.00424.08659-.00423.08658-.00423.08789-.00439.08659-.0044.07683-.00391.09635-.005.08333-.0044.0944-.005.082-.0044.067-.00358.11133-.00618.05078-.00293.12826-.00732.03971-.00228.138-.008.043-.0026.13281-.00782.04362-.00276.13737-.0083.03711-.00228.14388-.00912.02995-.00179.15169-.00976.026-.00179.1543-.01009.02214-.00147.16992-.01139.00651-.00049A120.23848,120.23848,0,0,0,210.7513,469.202l.00521-.00342c.04818-.03353.09831-.0682.14648-.10189l.01172-.00814.14193-.09912.01172-.00814c.04687-.03271.095-.0664.14128-.09912l.013-.009c.04817-.03385.0983-.06917.14713-.10319l.00326-.0026.151-.10629.00325-.00228c.23112-.16341.46029-.32649.69076-.4917l.00651-.00472c.04818-.03434.097-.06933.14453-.10384l.01563-.01123c.04492-.03206.09049-.0651.13541-.09733l.02018-.01448.12891-.09359.02669-.01921.1237-.08968.02865-.02067c.041-.03011.07942-.05778.12044-.08789L213,467.60173c.04036-.02914.07943-.05795.11979-.08708l.03125-.023c.03776-.028.07943-.05843.11784-.08643l.03255-.02392.11719-.08627.0332-.02408c.03776-.02816.07552-.056.11394-.08415l.0371-.02734c.03776-.02816.07422-.055.11263-.08318l.03581-.02669c.07617-.05631.14779-.10954.224-.16618l.0293-.022.11914-.08887.03776-.02832c.03646-.02718.07357-.05485.10937-.082l.043-.03222c.03516-.026.07227-.054.10677-.08008l.03907-.029c.0358-.02735.07291-.055.10872-.08236l.04167-.03141.10546-.07959.04428-.03369.10156-.07683.04687-.0358c.03516-.02637.06641-.05014.10091-.0765l.04818-.03662c.03125-.02409.06185-.04737.09375-.07146.01758-.01383.03646-.028.05469-.04182l.08984-.06869.058-.0446.07812-.06.06966-.05372.06315-.0485.08464-.06526.0625-.048.08529-.06624.06119-.04769.08659-.06706.0586-.04525.08854-.06933.05794-.04476.07747-.06071.06706-.05257.07422-.05811.07031-.05517.07357-.05762.07031-.0555.07292-.05746.071-.056.07357-.05826c.02148-.01726.04557-.03614.06771-.05339l.07812-.0625.0586-.04622c.028-.02263.05859-.04655.08659-.06918l.04882-.03857.09636-.077.04948-.03939.09505-.07617.05013-.04069c.0319-.02506.0638-.05094.095-.076l.04948-.03987.09636-.07748.04882-.03938.09636-.07813.04687-.03792c.03255-.02653.06446-.05241.09766-.07894l.04687-.03841c.03321-.0267.06576-.05339.09831-.08008l.04362-.03548.0944-.07666.04688-.03874c.03125-.02539.05989-.0485.09049-.07406l.05078-.04134c.0293-.02425.06055-.0498.0905-.07422l.05013-.041.08984-.07438.04818-.03955.095-.07829.03906-.03255.10287-.08545.041-.03369c.03516-.02946.06706-.05616.10287-.08545.01367-.01156.026-.02214.04036-.03353l.10287-.08594.03906-.03271c.03516-.02946.069-.05778.10482-.08741l.03776-.0319c.03515-.02962.069-.0581.10482-.08773l.03776-.03157c.0332-.02848.071-.06022.10481-.08854l.03711-.03125.10612-.08936.03451-.02946c.03515-.02978.07357-.06185.10872-.09179l.03321-.02816.10416-.08854.03711-.03142c.0332-.02864.06641-.05664.09961-.08528l.03906-.03337.097-.08252.041-.03532c.03386-.02864.06706-.05745.10092-.08626l.02864-.0249.11133-.09571.0306-.02636.11-.09457.03191-.02767c.03515-.03011.07226-.06266.10742-.09293l.0345-.02995.10742-.09294.03321-.02881c.0345-.03043.07226-.063.10677-.09326l.03385-.02946c.03646-.03173.07162-.06217.10742-.09391l.03256-.02865c.03645-.03157.07226-.063.10872-.09472l.0319-.028c.03581-.03173.07227-.0638.10873-.0957l.02994-.02637.112-.09847.026-.02278c.03842-.03451.07618-.06739.11459-.10189l.02148-.01872.11328-.10042.02409-.02116c.03711-.03337.07422-.06608.11133-.09945l.02083-.01855c.03776-.03337.07748-.06885.11459-.10222l.02343-.02067c.03711-.03352.07683-.06852.11394-.10205l.026-.02327.11328-.10189.02539-.02279c.03776-.03369.07552-.0677.11263-.1014l.02669-.02408c.03776-.03353.07487-.06739.112-.10108l.028-.0249.11067-.10026.02735-.02523c.03776-.03369.07422-.06706.11133-.10091l.02734-.0249c.03841-.03516.07292-.06657.112-.10173l.02539-.02376c.03711-.03386.07682-.06966.11393-.10368l.02214-.02067c.03906-.03532.07812-.07113.11653-.10645l.01953-.01806c.03972-.03679.08008-.07341.1198-.11019l.01367-.01286c.04166-.03809.08268-.07617.12435-.11426l.00846-.008c.041-.03809.08073-.075.1224-.11312l.01172-.01091.12239-.11344.01563-.01481.11914-.11084.01888-.01758.11849-.11035.01823-.01758c.03841-.03564.07877-.0734.11653-.10921l.02084-.01953c.03971-.03727.07747-.07227.11653-.10954l.02018-.01839c.03907-.03727.07683-.07276.11654-.11l.02018-.01888c.03907-.03743.07683-.07308.11654-.11051l.01888-.01774c.03971-.03744.07812-.0739.11719-.11149l.01823-.01709c.03971-.03744.07942-.07536.11914-.113l.01562-.0153c.041-.0389.07943-.07585.12044-.11475l.01368-.01318c.041-.0389.08268-.07877.123-.11784l.00912-.00846c.04362-.04167.08333-.08024.127-.12207l.00391-.00374.1276-.12256.00651-.00619c.04167-.04053.08333-.08073.12565-.12142l.00977-.00976c.041-.03923.08268-.07992.1237-.11931l.01237-.012.11979-.1167.01627-.01546.11849-.11589.01563-.0153.11914-.116.01562-.01529.11849-.11605.01628-.01628c.03906-.03825.07878-.07764.11784-.116l.01562-.01546c.03907-.03825.07943-.07829.11849-.1167l.01628-.01579.11784-.1167.015-.01513c.04037-.03988.08008-.0791.11979-.119l.01107-.01107c.04167-.04134.08268-.0817.1237-.123l.00651-.00635.12825-.12809h0l.09375-.09392c.13217-.13151.39909-.3986.79688-.79655l.39-.38981c.01758-.01758.03711-.0376.05534-.0555l.20248-.20247c.07812-.078.15885-.15918.24283-.24268l.79428-.7946c.03255-.03271.0625-.06266.09635-.096l.11328-.11345c.10677-.10693.21875-.21907.332-.3317l1.043-1.0433c.09635-.09635.19271-.193.29232-.29264l.10742-.10742.33789-.33773L233.916,448.751c.03515-.03549.07356-.07357.10937-.10938l.8724-.87239.01823-.01807.66145-.66162c.21941-.21957.44662-.44678.67448-.67416l.85026-.85091.03972-.03971.11979-.11979c.10742-.1071.2168-.2168.32552-.32552l.78385-.78386c.03581-.03532.07162-.07112.10677-.10661l.79623-.79589.0944-.09457,3.06315-3.063.05339-.05387,5.972-5.97168c.08464-.0848.17643-.17676.26172-.262l.8444-.84408.04623-.04639.07161-.07161c.12174-.12174.2513-.25114.3737-.3737l.70117-.70117c.06641-.06641.123-.12272.18945-.18929l.05274-.05273c.13346-.13347.25781-.25831.39258-.39258l3.05078-3.05078.06575-.06608,1.17318-1.17269c.05208-.05258.11-.11036.16276-.16309l.03516-.03483c44.25781-44.258,128.87174-128.87207,172.28125-172.28174l.06575-.06608c1.03841-1.03809,2.0612-2.061,3.05078-3.05078l.39258-.39258.05273-.05273.18946-.18929c.235-.2347.4694-.46924.70117-.70118l.3737-.37369.07161-.07162.04623-.04638c.28645-.28614.5625-.5625.8444-.84408l.26172-.262q3.19727-3.19726,5.972-5.97168l.05339-.05388q1.60839-1.60766,3.06315-3.063l.0944-.09456q.40429-.40381.79622-.7959l.10677-.10661c.26628-.26627.526-.5262.78386-.78385l.32552-.32552.11979-.11979.03971-.03972c.29167-.29183.571-.571.85026-.85091l.67448-.67415c.22526-.2251.44466-.44483.66146-.66162l.01823-.01807c.30013-.30029.58854-.58854.8724-.87239l.10937-.10938c.59375-.59391,1.153-1.15316,1.67188-1.67171l.33789-.33773c.03646-.03646.071-.07145.10742-.10742l.29232-.29265q.55761-.55711,1.043-1.04329l.332-.33171c.03776-.03743.07682-.07682.11328-.11344l.09635-.096q.43164-.43164.79427-.79459l.24284-.24268c.07031-.07031.13672-.13688.20248-.20247l.05533-.05551q.2129-.21215.39-.38981l.79687-.79655.09375-.09391.07031-.07031.028-.028.04167-.04215.02539-.02523c.01627-.01644.0306-.03109.04752-.04752l.01758-.01807.05143-.05176.02474-.02474.04623-.04622.02539-.02572.04362-.0446.028-.02766.043-.04379.02669-.02685.043-.04378.02735-.02767.043-.0433.02864-.02913.04037-.041.02994-.03043.03907-.04.0319-.03256.03776-.03824.0306-.03158.03971-.04036.03125-.03158c.01172-.012.02539-.02637.03776-.03841l.0319-.03272.03776-.03906.03125-.03206.03776-.03841.0319-.033.03711-.03776.03321-.034.0345-.03613.03451-.035.03645-.03808.03191-.03239.04036-.042.02734-.02832.04362-.04508.026-.02686.04492-.04638.02343-.02442.05339-.0555.015-.01546c.02149-.02262.043-.04476.06511-.06755l.00325-.00374.06706-.0695.00326-.00325c.04622-.04851.09244-.09685.13932-.14551l.00065-.00081c.02344-.02442.04427-.04672.06771-.071l.01237-.01318c.01758-.01823.03776-.03906.05469-.05729l.02408-.02491.04493-.04736.02408-.02539.04428-.04622.026-.02735.04166-.04394.0306-.03255.03581-.03793.03255-.03434.03711-.0389.03125-.03271.03516-.0376.0345-.03679.03321-.03532.0345-.036.0332-.0358.03386-.03565.03581-.03792.03125-.03385.03515-.03679.03321-.036.03515-.03743.03125-.03353.03776-.04.0293-.03158.03776-.0402.03125-.0332.0345-.0376.03321-.03516.03385-.03694.0332-.03548.03321-.03565.0345-.03727.03125-.03353.03646-.03922.02735-.02979.04036-.04346.02539-.02718.041-.04443.02539-.02783.04166-.04493.0267-.02913.03906-.042c.02083-.02311.03906-.04281.06055-.06592l.0052-.006c.02279-.02474.04427-.04769.06641-.07227l.03581-.0389.0306-.03353.0319-.0345.0358-.03906.02995-.03288.03581-.03939c.01107-.01188.02214-.0236.03255-.03564.01172-.01221.02279-.02474.03386-.03711l.0319-.03483.03515-.03874.0306-.033.03581-.03971.03125-.03451.0345-.03792.03321-.03646.03255-.036.03451-.03792.03125-.03484.03385-.03694.0332-.03727.0319-.03483.03386-.03809.0332-.03662.0319-.03532.03451-.03809.03125-.03515.03385-.03744.0319-.036.03451-.03825.02995-.03336.0358-.04.0306-.03434.03386-.03744.03255-.03678.0332-.03727.0306-.03418.03581-.04.02734-.0306.03841-.04313.026-.02963.03907-.04378.02539-.02864.03906-.04444.02995-.03369.03385-.03825.03841-.04313.0267-.03044c.01562-.01709.0319-.03613.04752-.05338l.01693-.0197.05664-.064.028-.03174.04493-.05143.03515-.03923.02995-.03418c.01042-.012.02279-.02669.03385-.03873l.0306-.03532.0319-.03613.03321-.03809.0319-.03613c.01042-.01254.02148-.02458.03255-.03711.01042-.01205.02149-.02523.03255-.03728l.0319-.03694.03191-.03646.03255-.03776.0306-.03451.03515-.04085.02735-.03125.03711-.0428.02864-.033.03451-.04021.0306-.035.03385-.03923.0293-.03385.03645-.04167.0267-.03157.03776-.04362.02669-.0306c.01172-.01416.02474-.029.03711-.04313l.02734-.0319.03646-.04248.02735-.0319.03645-.04249.028-.03255c.01237-.01416.02409-.02767.03581-.042l.028-.03206.03516-.04167.02864-.03353.03581-.04183.02734-.03206.03776-.044.026-.03043.03906-.04623.02409-.02832.04166-.04931.02149-.02474.04622-.05469.01693-.02.05143-.06022.01237-.01465c.01823-.02214.03516-.0415.05339-.0638l.01041-.01172c.06381-.07617.127-.151.19141-.22721l.00521-.00652c.01888-.02213.03841-.04541.05664-.0677l.01693-.02.04557-.0542.02213-.02637.04037-.0485.02409-.02865.03841-.04606.026-.03076.03646-.04411.026-.03125.03711-.04443.02539-.03028.03711-.04475.02669-.03207.03516-.04232.02864-.0345.03321-.03972.02995-.03629.0319-.03906.02994-.03565.03321-.04053.02734-.03336c.01237-.01432.02474-.02946.03646-.04395l.026-.03125c.01172-.01432.02409-.02994.03646-.04427l.02474-.03043.03776-.0459.02474-.03.03711-.04557.02474-.02979.03776-.0459.02474-.03043.03711-.04574.02344-.02881c.015-.01757.028-.03353.04231-.0511l.01953-.02425.043-.05306.01888-.02263.04362-.05355.01823-.023.04623-.05631.01562-.01921.04688-.0581.015-.01839.1224-.15153.01692-.02051.04558-.05664.015-.01872.04557-.05615.02539-.03239.03516-.04313.02995-.03711.02995-.03793.02994-.03727.0319-.03987.02735-.03386.03385-.04264.026-.03255.03516-.04379.026-.03239.03516-.04394.02539-.03223.03516-.04378.026-.033.0345-.04362.02539-.0319.03516-.04411.026-.033.03516-.04411.02409-.03092.03645-.04525.026-.033.0332-.042.02669-.03451.0332-.04215.02735-.03434.03385-.043.02539-.03256.03451-.04362.02669-.034.03255-.04151.02735-.035.03385-.04329.02539-.03239.03776-.04818.02149-.02767.04231-.0542.01693-.02181.05208-.06673.00717-.00879.05208-.06722.00846-.01107c.08073-.10416.16016-.20654.24089-.31087l.0039-.00537.05534-.07194.00912-.01156.04948-.06445.01692-.02181.04232-.055.01953-.02539.03972-.0516.01888-.02506.041-.05355.01758-.0223.04167-.05485.01757-.0236c.01433-.0179.02735-.03516.041-.05306l.02083-.028.03646-.0472.02409-.0319.03516-.04606.02278-.03011.03646-.048.02214-.02881c.01237-.01644.02474-.03337.03776-.04964l.02083-.028.03646-.04785.02279-.0306.0358-.047.02344-.03092.03451-.04574.02408-.03206.03386-.04525.02474-.03271.0332-.04427.02474-.033.03451-.04541.02408-.03223.03386-.04525.02409-.03255.0345-.04557.02344-.03174.03841-.05143.01888-.02507.043-.05762.015-.02034.04753-.06413.01042-.01334c.07812-.10547.15494-.20915.23307-.31478l.00521-.007.05208-.07064.01107-.0153c.015-.01986.0319-.043.04622-.06283l.01433-.0192c.01432-.01986.028-.03858.043-.05827l.01693-.02327c.01367-.01823.02735-.03711.04037-.05534l.01692-.023.04037-.05485.01888-.02588.03841-.05225.01888-.02636.03776-.05144.02018-.028c.01237-.0166.02539-.03418.03711-.05078l.02084-.028.03515-.04866.02344-.0319.0332-.04606.02279-.03125.03581-.04981.01953-.02637.03841-.05322.01888-.02588c.013-.01823.02279-.03222.03646-.05045l.02083-.02946.03581-.04883.02083-.02962.03581-.04932.02083-.0293.03646-.05029.02018-.028.03776-.05257.01758-.02522.041-.05713.015-.021.04362-.06055.013-.01806.043-.06022.01367-.01937.04492-.06283.01107-.01579c.09505-.1333.18815-.26481.28255-.39827l.002-.00277.05338-.07552.01042-.01465c.015-.02181.0293-.04215.04492-.064l.01367-.01937.04167-.05973.01432-.0197.04232-.06087.01237-.01774c.01432-.02018.02865-.0402.04232-.06038l.01562-.02165.04037-.05843.01432-.02019.04167-.0594.01432-.02051c.01237-.01839.02734-.03988.04036-.05827l.01563-.02262.03971-.05681.01563-.02295.03906-.05566.01693-.02474c.01432-.02018.02539-.036.03906-.05615l.01562-.0223c.01237-.01855.0267-.03841.03907-.057l.01627-.02327.03907-.05615.01627-.02409c.013-.01856.02474-.03548.03711-.054l.01823-.0262.03776-.05453.01693-.02441c.01107-.01693.026-.03809.03776-.05485l.01758-.02555.03711-.055.01692-.02409.03972-.05859.01432-.02051.04427-.06478.00977-.01432.05143-.07487.0026-.00407c.14714-.21566.29167-.42887.43685-.64518l.00781-.01156.04493-.06689.013-.01969.041-.061.01172-.01774c.015-.022.02865-.04183.043-.0638l.01042-.016.04231-.06267.01433-.02132.03906-.05924.01432-.02084c.013-.02018.026-.03906.03906-.0594l.01433-.02133.04036-.06038.01237-.0192c.01367-.02035.02669-.03923.03972-.05958l.01562-.02343.03711-.05616.01628-.02457.03841-.05762.01367-.021c.01367-.02034.028-.04215.041-.0625l.01172-.01708c.01433-.02214.02735-.042.04232-.064l.01107-.01693c.01432-.02213.02864-.04427.04362-.0664l.00846-.01335.04558-.06917.00781-.0114c.01432-.02213.02929-.04557.04427-.0677l.00911-.01449c.01433-.02214.02995-.0459.04493-.06787l.00781-.01253c.17773-.27214.35286-.54216.52864-.81543l.00131-.00212.05078-.07926.0026-.00456.04883-.07552.00586-.0096.04752-.07406.00261-.00456.04883-.076.00521-.0083c.015-.02392.03125-.04964.04687-.07357l.00521-.00813c.015-.02393.03125-.04883.04622-.07292l.00651-.01025.04492-.07113.00717-.01107c.015-.02392.02864-.04557.04427-.0695l.00846-.01383.04232-.06657.00976-.01611.04232-.06641.00912-.014.04492-.07194.00521-.00814c.015-.02392.0319-.0511.04752-.07519l.00391-.006.04883-.07845.00195-.00293.05013-.08041.0013-.00146q.30957-.49488.61393-.99072l.002-.00342.04817-.07878.00326-.00521c.01562-.02588.0306-.05078.04687-.07666l.00456-.00781c.01563-.026.0306-.05045.04688-.07633l.002-.00342c.01693-.02751.0319-.05225.04818-.07992l.00195-.00244.04883-.08024.0013-.00277c.01693-.02767.0319-.05192.04818-.07959l.0026-.00423.04753-.07829.00325-.00488.04623-.07682.00455-.00716.04688-.07813.002-.00276c.01628-.02767.0319-.05339.04883-.08122l.00065-.0013q.47559-.79005.93685-1.58431l.0013-.00245.04753-.08138.00065-.002.09635-.16585.00066-.0013.04817-.083v-.00033a120.56241,120.56241,0,0,0,16.06966-60.834v-.00114q-.002-.564-.01041-1.12761h0c-.00065-.03141-.00131-.06152-.00131-.09293v-.00684c-.00065-.02734-.0013-.05664-.0013-.08414l-.00065-.021-.0013-.06982-.00065-.0306-.00065-.06006-.00065-.03483-.00131-.05974-.00065-.03271-.00065-.05762-.00065-.03727-.0013-.05583-.00065-.03694-.0013-.05453-.00065-.03825-.00131-.05582-.00065-.03663-.0013-.05338-.00065-.04248-.0013-.0472-.00065-.0472-.00131-.04313-.0013-.04786-.00065-.04882-.0013-.04248-.0013-.04558-.00131-.05029-.00065-.03776c-.00065-.01888-.0013-.03646-.0013-.05518l-.0013-.0319c0-.01888-.00065-.043-.0013-.06185l-.00065-.02522-.002-.0695v-.00847l-.00781-.26448a42.66555,42.66555,0,0,0-42.62435-41.39014Z" style="fill:#99cefa"/><path d="M455.32031,56.67969a120.67844,120.67844,0,0,0-170.66666,0l-113.987,113.987L341.33333,341.33333l113.987-113.987A120.67844,120.67844,0,0,0,455.32031,56.67969Z" style="fill:#ffd432"/><path d="M482.043,186.70964a120.057,120.057,0,0,0,5.66146-19.10287q.56835-2.62305,1.01432-5.26432a121.35293,121.35293,0,0,0,1.84766-19.28255c.0039-.42969.07812-.85678.07682-1.28646-.00781-3.96615-.73828-7.89063-1.13412-11.84115a42.67606,42.67606,0,0,0-41.52083-32.92838c-.42838,0-.86068.00651-1.29167.01953a42.66629,42.66629,0,0,0-41.3789,43.91666,35.12731,35.12731,0,0,1-10.33724,26.06641l-113.987,113.987,60.33984,60.33984,1.00391-1.0039,85.82292-85.82292.0651-.0651,3.05078-3.05079.39323-.39322.05208-.05209.19011-.1901.70052-.70052.3737-.3737.07161-.07161.04688-.04688.84375-.84375.26172-.26172,5.97265-5.97265.05339-.05339,3.0625-3.0625.09505-.09505.79557-.79558.10677-.10677.78386-.78385.32552-.32552.11979-.11979.04036-.04037.85026-.85026.67448-.67448.66146-.66146.01823-.01822.8724-.8724.10937-.10938,1.67188-1.67187.33724-.33724.10807-.10807.29167-.29167q.55858-.5586,1.043-1.04427l.332-.33073c.03776-.03776.07682-.07682.11328-.11458l.09635-.09505q.43164-.43165.79427-.79558l.24349-.24219.20183-.20182.056-.056.38933-.38932.79687-.79688.09375-.09375a120.27915,120.27915,0,0,0,26.4375-39.78255C481.87109,187.28516,481.931,186.98958,482.043,186.70964Z" style="fill:#f4ac03"/><path d="M80.157,268.49678h95.686a30.16987,30.16987,0,0,1,30.16987,30.16987v.00006A30.16985,30.16985,0,0,1,175.843,328.83656H80.157a30.16987,30.16987,0,0,1-30.16987-30.16987v-.00006A30.16985,30.16985,0,0,1,80.157,268.49678Z" transform="translate(-173.69889 177.98711) rotate(-45)" style="fill:#e1ebfc"/><path d="M250.82365,97.83011h95.686A30.16986,30.16986,0,0,1,376.67954,128V128a30.16985,30.16985,0,0,1-30.16985,30.16985h-95.686A30.16986,30.16986,0,0,1,220.65379,128V128a30.16985,30.16985,0,0,1,30.16985-30.16985Z" transform="translate(-3.03223 248.67956) rotate(-45)" style="fill:#ffef7d"/><rect x="272.15702" y="76.49678" width="95.68597" height="60.33978" rx="30.16986" ry="30.16986" transform="translate(18.30111 257.51611) rotate(-45)" style="fill:#fff8c6"/><path d="M256,423.78514c0-104.44725-84.67122-189.11847-189.11847-189.11847H63.2402a41.90687,41.90687,0,0,0-41.90687,41.90687v3.64132c0,104.44725,84.67123,189.11847,189.11847,189.11847h3.64133A41.90687,41.90687,0,0,0,256,427.42646v-3.64132Z" style="fill:#6ec030"/><rect x="42.66667" y="341.33333" width="85.33333" height="21.33333" rx="10.66666" ry="10.66666" style="fill:#4da900"/><rect x="85.33333" y="384" width="85.33333" height="21.33333" rx="10.66666" ry="10.66666" style="fill:#4da900"/><path d="M230.2487,443.582,85.33333,298.66667,68.418,281.7513a15.08495,15.08495,0,1,0-21.33333,21.33334L64,320,208.91536,464.91536a15.08569,15.08569,0,0,0,21.33334,0v-.0013A15.08413,15.08413,0,0,0,230.2487,443.582Z" style="fill:#4da900"/><path d="M173.44141,297.7627a10.66681,10.66681,0,0,0-7.24349,18.49934,147.7749,147.7749,0,0,1,23.91341,28.47331,10.6665,10.6665,0,0,0,17.96224-11.50879q-3.83888-5.96582-8.15625-11.57324l-.00065-.001c-.09961-.12923-.20313-.26367-.30274-.39225l-.00846-.01107c-.026-.0332-.04688-.06054-.07292-.09375l-.0039-.0052c-.07422-.09571-.14323-.18458-.21745-.28l-.01888-.02409c-.01953-.02474-.04623-.05892-.06511-.08366l-.01692-.02148c-.06771-.08692-.13477-.17253-.20313-.25944l-.028-.03581-.0586-.07455-.02994-.03841-.19206-.24381-.0319-.04069-.05339-.06739-.04036-.05143-.04818-.0612c-.02474-.03059-.04883-.06152-.07357-.09212-.01627-.02083-.03515-.04525-.05208-.06575-.01563-.02051-.0319-.041-.04818-.0612l-.04492-.05632c-.01693-.02181-.03581-.04492-.05273-.06673-.013-.01627-.02409-.0306-.03777-.04687-.02864-.03679-.05794-.07325-.08723-.11l-.02865-.03581c-.02214-.02767-.04427-.055-.06641-.083l-.0345-.04362c-.02018-.02507-.04037-.04981-.0599-.07487l-.03581-.0446c-.02994-.03711-.05989-.07422-.08919-.11165l-.01888-.02279-.07682-.096-.0293-.03613c-.02409-.0306-.04817-.06022-.07291-.09082l-.02149-.027c-.0651-.0804-.12956-.16048-.19466-.24056l-.02018-.02539c-.026-.03255-.05274-.06511-.07878-.09733l-.02083-.02572c-.06511-.0804-.13086-.16113-.196-.24121l-.01888-.02279c-.028-.03515-.05664-.07031-.08528-.10514l-.01237-.0153c-.06836-.08333-.13672-.16732-.20508-.25065l-.00391-.00521c-.03255-.03939-.06575-.07975-.09765-.11946l-.00847-.01009a169.26588,169.26588,0,0,0-15.847-16.83041l-.00846-.00814-.11459-.10579-.0039-.00358a10.62842,10.62842,0,0,0-7.237-2.83333ZM64,256h-.071l-.06836.00033h-.00326l-.06706.00065h-.0039l-.06576.00065h-.00586l-.0638.001h-.00716l-.06315.001-.00781.00033-.0625.0013H63.502l-.06185.0013-.00846.00033-.06185.00162-.00911.00033-.06185.00163-.00847.00032-.06184.002-.00912.00032-.06055.002-.00976.00033-.0612.00228-.00846.00032-.06185.00261-.00847.00032-.06119.00261-.00912.00032-.06054.00293-.00977.00033-.06055.00293-.00911.00065-.06055.00325-.00976.00033-.0599.00325-.00977.00066-.05989.00358-.01042.00065-.05989.00358-.00912.00065-.05989.00391-.00977.00065-.0599.0039-.00976.00065-.0599.00424-.00911.00065-.0599.00455-.00781.00033-.0599.00456-.00846.00065-.0599.00488-.00846.00065-.05794.00488-.01107.001-.05859.00488-.01042.001-.05794.00521-.01107.001-.05729.0052-.01237.001-.05534.00521-.01432.00163-.05664.0052-.01107.00131-.05664.00553-.013.0013-.05534.00586-.01367.0013-.054.00586-.015.00163-.054.00586-.01432.00163-.054.00618-.015.00163-.05339.00619-.01562.00195-.05209.00618-.01692.002-.05274.00651-.01432.00162-.05339.00684-.015.00195-.05339.00684-.015.002-.05273.00684-.01563.00195-.05273.00716-.015.002-.05273.00716-.01563.00228-.05273.00748-.01432.002-.05209.00748-.01627.00261-.05209.00748-.01432.002-.05013.00748-.01693.00261-.04948.00781-.01758.00261-.04687.00716-.02148.00358-.04623.00716-.01823.00293-.04752.00781-.02084.00326-.04557.00748-.02083.00358-.04362.00749-.02474.00391-.04427.00748-.01823.00326-.04753.00846-.02083.00358-.04557.00814-.02149.00391-.04492.00781-.02279.00423-.04427.00814-.02148.00391-.04558.00846-.02148.00423-.04492.00847-.02214.00423-.04427.00846-.02278.00456-.04428.00879-.02148.00423-.04492.00879-.02214.00456-.04427.00911-.02148.00423-.04427.00912-.02279.00488-.04427.00911-.02083.00424-.04427.00944-.02344.00488-.04037.00879-.02539.00553-.03776.00814-.02864.00651-.03776.00814-.026.00586-.03841.00879-.02734.00618-.03841.00879-.0267.00586-.03645.00879-.0293.00651-.03581.00846-.02864.00684-.03646.00846-.02865.00684-.0358.00879-.0293.00683-.03516.00879-.02995.00716-.0358.00879-.02539.00651-.04037.01009-.02344.00586-.04036.01009-.02409.00619-.04036.01042-.02214.00586-.043.01106-.02148.00554-.04362.01139-.02084.00553-.04362.01172-.02083.00554-.043.01172-.02213.00586-.04362.01171-.01953.00554-.04427.01237-.02084.00553-.04362.01237-.02018.00554-.04362.01236-.02083.00586-.04362.01237-.02019.00586-.04427.013-.01953.00554-.04427.013-.01888.00553-.04427.013-.02018.00586-.04427.01367-.01758.00489-.04753.01432-.01432.00456-.04883.015-.01432.00423-.04883.0153-.01367.00423-.04818.015-.01367.00423-.04948.01563-.01172.0039-.04883.01563-.01432.00423-.04752.01562-.01368.00424-.05013.01627-.00976.00326-.05274.01725-.00911.00293-.054.01823-.00846.0026-.05274.01758-.00976.00358-.05274.0179-.00911.00293-.05339.01823-.00911.00326-.05273.01823-.00977.00325-.05143.01791-.01107.0039-.05208.01856-.00847.00293-.05468.01953-.00586.00195-.05664.02018-.00521.002-.05664.02051-.00456.00162-.05664.02084-.00456.00162-.05794.02149-.00195.001-.05925.02181-.002.001-.0586.02181-.00325.0013q-.33007.125-.6556.26042a10.66667,10.66667,0,0,0,8.19792,19.69531A1.16688,1.16688,0,0,1,64,277.33333h2.875a145.42937,145.42937,0,0,1,52.15951,9.59473,10.66656,10.66656,0,0,0,7.63281-19.9209,166.24473,166.24473,0,0,0-20.67839-6.40462l-.00195-.00065-.12305-.0293-.0039-.001c-.33659-.0804-.66993-.15885-1.00782-.2373l-.00781-.002-.11393-.02637-.01563-.00358-.11393-.02637-.00846-.002-.11589-.02669-.01107-.00261c-.25325-.05827-.5013-.11458-.7552-.17155l-.00847-.002-.11718-.02637-.00977-.00228-.11393-.02539-.01563-.00325-.11393-.02539-.00911-.002c-.04232-.00944-.07487-.01692-.11719-.026l-.00912-.00228-.12369-.02734h-.00066c-.21223-.04688-.41862-.09212-.63085-.138l-.01758-.00358-.10873-.02377-.01692-.00358-.10482-.02246-.02539-.00553-.10156-.02181-.02214-.00488-.10677-.02279-.01693-.00358-.11653-.02474-.00717-.00163c-.21289-.04525-.41862-.08854-.63151-.13281l-.01627-.00358c-.0319-.00651-.07617-.01563-.10808-.02246l-.02213-.00456c-.0319-.00651-.06836-.014-.10026-.02083l-.0293-.00586c-.0319-.00684-.0638-.01335-.0957-.01986l-.0293-.00586-.0957-.01985-.02995-.00619-.10677-.02181-.01367-.00293c-.043-.00846-.08138-.01628-.1237-.02506l-.0013-.00033c-.12826-.026-.25456-.05176-.38281-.07747l-.00651-.00131-.11589-.02311-.02279-.00456-.10221-.0205-.02734-.00554-.09636-.0192-.02995-.00586-.099-.01953-.02474-.00489c-.0319-.00651-.07032-.014-.10222-.02018l-.02278-.00456-.10482-.0205-.02149-.00424-.11393-.02246-.01041-.002c-.12826-.02506-.25391-.04948-.38217-.07422l-.0052-.001-.11719-.02247-.02474-.00488-.10156-.01953-.02474-.00456-.099-.01888-.03125-.00586c-.0319-.00618-.0638-.01237-.09571-.01823l-.02734-.0052-.10026-.01921-.02669-.00488-.10156-.01921-.02279-.00423-.11263-.02116-.01237-.00228c-.12891-.02409-.25261-.0472-.38151-.071l-.013-.00261-.11068-.02018-.02669-.00488c-.03255-.00619-.06511-.012-.09766-.0179l-.0345-.00651-.08724-.01595-.041-.00749-.08594-.01563-.03841-.00683-.08724-.016-.03841-.00684-.09049-.01628-.03386-.00618-.0957-.01725-.0293-.00521c-.1289-.02311-.2487-.04427-.37825-.06706l-.01823-.00325c-.03711-.00684-.06836-.01237-.10612-.01888l-.0293-.00521-.09635-.01693-.03125-.00553-.09375-.01628-.03581-.00618-.0905-.01563-.03385-.00586c-.03255-.00586-.06055-.01042-.09245-.01627l-.0345-.00586-.0944-.01628-.02995-.00521-.10547-.0179-.01953-.00326c-.12891-.02213-.25326-.04329-.38281-.0651l-.00912-.00163-.11458-.0192-.028-.00456L94.612,258.292l-.03776-.00618-.08464-.01433-.043-.00716-.08593-.014-.03841-.00651-.0892-.01465-.0358-.00586-.09115-.015-.03581-.00586-.099-.01627-.02408-.00391-.12045-.01953-.00521-.00065-.25455-.04134-.026-.00391-.099-.01595-.03776-.00618-.08724-.01368-.04037-.00651-.08593-.01367-.04167-.00651-.08464-.01334-.04036-.00651-.08464-.013-.04362-.00683-.08268-.013-.043-.00651-.08138-.0127-.04557-.00716-.0905-.014-.03255-.00488-.11719-.01823-.02343-.00358c-.03776-.00553-.07357-.01107-.11133-.01693l-.0319-.00488-.09245-.014-.04036-.00618-.08789-.01335-.04037-.00586-.082-.01237-.04688-.00716-.082-.01237-.04231-.00618-.082-.01237-.04557-.00651-.08073-.01205-.04622-.00683-.07617-.01107-.05079-.00749c-.02734-.00423-.05533-.00814-.08268-.012l-.041-.00619c-.08724-.01269-.16472-.02409-.252-.03646l-.0306-.00455-.09244-.01335-.04818-.00684-.07878-.01106-.04557-.00684-.07943-.01107-.04948-.00716-.07682-.01074-.04883-.00684-.07552-.01074-.05208-.00749-.07747-.01074-.04558-.00618-.08528-.012-.041-.00553-.09831-.01367-.026-.00358-.112-.0153-.01627-.00228c-.04362-.00619-.082-.0114-.12565-.01725l-.02995-.00424-.0944-.01269-.04623-.00619-.08008-.01106-.04947-.00651-.07422-.00977-.05469-.00749-.07292-.00976-.05208-.00684-.07292-.00976-.054-.00717-.07292-.00976-.05274-.00684-.07226-.00944-.05469-.00716-.07357-.00944-.05143-.00683-.08268-.01075-.043-.00553-.12435-.01595-.03515-.00456-.08985-.01139-.04818-.00619-.07877-.01009-.04883-.00618-.07682-.00944-.05143-.00651-.07618-.00977-.04882-.00586-.07618-.00976-.05273-.00651-.07357-.00912-.05273-.00651-.07422-.00911-.05143-.00619c-.02735-.00358-.05534-.00683-.08269-.01009l-.04231-.00521c-.03256-.00423-.0612-.00749-.09375-.01139l-.03386-.00423-.125-.015-.03385-.00423-.09115-.01074-.04883-.00586-.07812-.00944-.05143-.00586-.07227-.00879-.05924-.00684-.06706-.00781-.05794-.00683-.069-.00814-.05665-.00651-.07161-.00847-.05469-.00618-.06966-.00814-.05729-.00651-.07162-.00814-.054-.00618-.08138-.00912-.04427-.0052-.12565-.014-.02995-.00326-.09505-.01074-.04948-.00553-.07683-.00847-.05143-.00586-.07487-.00813-.05469-.00619-.07226-.00781-.056-.00619-.06706-.00716-.0625-.00683-.0651-.00684-.0586-.00651-.0677-.00716-.06055-.00651-.06706-.00716-.05794-.00619-.08138-.00846L84.53,256.9222c-.04362-.00488-.08138-.00879-.125-.01335l-.03125-.00325c-.02735-.00261-.06706-.00684-.0944-.00977l-.05339-.00553-.07226-.00716-.06185-.00651-.06185-.00619-.06706-.00683-.0599-.00619-.0651-.00651-.06055-.00618-.06575-.00651-.0612-.00619-.0651-.00651-.06185-.00618-.0625-.00619-.07031-.00683-.056-.00554-.07227-.00683-.05469-.00554-.07812-.00749-.10026-.00976-.071-.00684-.056-.00521-.07161-.00683-.05469-.00521-.07291-.00684-.05469-.0052-.07357-.00684-.05078-.00456-.07682-.00716-.05469-.00521-.06966-.00618-.05729-.00521-.07032-.00651-.05859-.00521-.06836-.00618-.05729-.00521-.07031-.00619-.0586-.00553-.12239-.01074-.03321-.00293-.09375-.00814-.04817-.00423-.08008-.00716-.054-.00456-.07031-.00619-.06055-.0052L81.2513,256.61l-.05794-.00489-.06836-.00553-.05924-.00521-.069-.00586-.05924-.00488-.06641-.00554-.05989-.00488-.07292-.00586-.054-.00455c-.02734-.00228-.06184-.00521-.08984-.00717l-.03516-.00293-.12825-.01041-.01107-.001-.11588-.00911-.04362-.00358-.084-.00651-.04883-.00391-.07877-.00619-.05339-.00423-.07291-.00553-.0573-.00456-.06835-.00521-.0625-.00488-.06511-.00488-.05989-.00456-.07032-.00521-.05794-.00423-.07227-.00553-.05338-.00391-.07292-.00521-.05794-.00423c-.02734-.00228-.071-.00521-.09831-.00716l-.03255-.00261c-.04427-.00293-.07617-.0052-.12044-.00846l-.041-.00293-.08724-.00618-.05078-.00358-.07487-.00521-.05664-.00423-.07227-.00489-.05729-.0039-.06771-.00489-.06184-.0039-.06706-.00456-.06055-.00423-.0651-.00456-.06315-.00391-.06511-.00455-.06315-.00423-.0612-.00391-.0664-.00423-.06185-.00423c-.03776-.00228-.07422-.00456-.112-.00717l-.07617-.00488-.0638-.0039-.0625-.00391-.06576-.00423-.06185-.00391-.06641-.00391-.06119-.0039-.06446-.00391-.0638-.0039-.06575-.00391-.06185-.00391-.0638-.00358-.06511-.0039-.0638-.00391-.06315-.00358-.0638-.00358-.06446-.00391L76.556,256.276l-.06055-.00358c-.04427-.00228-.08789-.00488-.13216-.00749l-.056-.00293-.06445-.00358-.06445-.00358L76.11,256.251l-.05664-.00293-.07162-.00391-.05794-.00325-.06771-.00359-.0599-.00293-.0664-.00358-.0638-.00325-.06446-.00326-.05924-.00325-.06966-.00358-.05925-.00293-.06771-.00326-.0651-.00325-.0612-.00326-.084-.0039-.04362-.00228-.12631-.00586-.04166-.00195c-.028-.00163-.06055-.00293-.08854-.00424l-.04167-.00195-.08724-.00423-.04948-.00228-.07747-.00358-.05534-.00228-.07162-.00325-.06119-.00293-.06706-.00293-.05925-.00261-.07226-.00293-.05664-.0026-.07487-.00293-.05274-.00228-.08007-.00358-.04883-.002-.11589-.00456-.01041-.00065c-.04493-.00163-.08464-.00326-.12956-.00521l-.03906-.0013-.0905-.00358-.05143-.002-.07422-.00293-.0599-.00228-.071-.0026-.05729-.00228-.07031-.0026-.0599-.00228-.07292-.00261-.05208-.002-.07878-.0026-.05078-.002-.08138-.0026-.04883-.00163-.08138-.00293-.04752-.00162-.09115-.00293-.03906-.00131-.1263-.0039-.043-.0013-.08724-.00293-.04948-.00163-.07747-.00228-.0573-.00163-.07421-.00228-.05274-.00162-.07552-.002-.05794-.00163-.07162-.00227-.056-.00131-.07356-.00227-.0573-.00131-.07421-.00195-.05339-.00163-.07617-.00195-.05534-.0013-.09049-.00228-.03581-.001c-.04492-.001-.08659-.00195-.13151-.00325h-.00261l-.12825-.00293-.02669-.00065-.10026-.00228-.04688-.001-.08333-.00195-.04883-.001-.07943-.00163-.05338-.001-.07618-.00163-.056-.0013-.07031-.0013-.05989-.001-.07487-.00163-.05209-.001-.08593-.0013-.04232-.001c-.03386-.00033-.069-.001-.10287-.00163l-.02734-.00033c-.04492-.001-.08464-.00162-.13021-.00228l-.02474-.00032-.10482-.00163-.04231-.00065-.08789-.0013-.04948-.00065-.07943-.00131-.054-.00065-.07422-.001-.05924-.00065-.071-.001-.05534-.00065-.07878-.001-.05143-.00032-.082-.001-.04623-.00065-.08593-.00065-.04623-.00065-.09765-.00065-.0306-.00033-.13021-.001-.02018-.00032c-.03972-.00033-.071-.00065-.11068-.00065l-.04427-.00033-.084-.00065-.05338-.00032-.07813-.00066h-.05208l-.07682-.00065h-.056l-.07487-.00032-.05534-.00033-.07292-.00032-.05859-.00033H67.319l-.05469-.00032h-.1289C67.10677,256,67.07031,256,67.04167,256H64Z" style="fill:#9fe27c"/><path d="M39.37565,245.751a10.6438,10.6438,0,0,0-8.15039,3.77994,41.74752,41.74752,0,0,0-9.3431,20.24252v.00228l-.00911.05468-.00065.00424-.00912.05566h0q-.03222.20116-.0625.40267l-.00065.0039-.00781.05339-.0013.00651-.00717.05208-.0013.00684c-.01627.113-.03255.22526-.04817.33854l-.00131.00781-.00651.0472-.002.01433-.00586.043-.0026.01985-.00586.042-.002.01562-.00586.04525-.002.01432c-.0026.01563-.00456.03125-.00651.0472v.00261c-.01042.07454-.01953.14811-.0293.223l-.0013.01074-.00521.04362-.0026.01888-.00521.04232-.002.01855-.00521.04069-.0026.02051-.00521.04264-.00131.0153-.00585.04427-.002.01758c-.00586.05176-.01237.10417-.01823.15593l-.00065.0052-.00456.042-.0026.02148-.00391.03874-.0026.02213-.00456.03874-.0026.02376-.00391.03841-.0026.02149-.00456.03971-.002.02246-.00456.04-.0013.01563c-.00586.05338-.01107.10612-.01693.1595v.00423l-.00521.0459-.0013.01595-.00391.04232-.002.01953-.00456.04167-.002.02018-.00391.03939-.002.02376-.0039.03841-.002.02442-.0039.03613-.00261.028-.0026.03515-.00326.03093-.00586.06445-.002.02474-.00326.03776-.0026.02506-.00325.03646-.002.02572-.00325.03516-.002.02864-.00325.03386-.002.028-.00326.03451-.00195.02929-.00261.03321-.0026.02929-.00261.03353-.0026.028-.00651.08919-.00065.00358-.0026.04036-.002.02312-.0026.0332-.002.03157-.0026.0306-.00195.03223-.00261.03027-.002.03386-.002.02962-.00261.0345-.00195.028-.0026.03743-.002.02637-.002.03776-.00326.04069-.0026.04525-.002.02962-.002.03451-.002.03027-.00195.03223-.002.0319-.002.03157-.002.0319-.0013.03158-.002.03125-.00195.03385-.002.0293-.002.03418-.0013.0293-.002.03548-.0013.02832-.00326.06055-.0013.026-.002.03841-.00131.02474-.002.03971-.0013.02507-.0013.03906-.00131.02507-.002.03906-.0013.026-.0013.04-.00131.02279-.002.04231-.00065.02279-.002.04948-.00065.01367c-.00065.02083-.00131.04264-.00261.06348l-.00065.01888-.0013.0459-.0013.02278-.0013.04037-.00066.02636-.0013.03842-.0013.02636-.00065.03646-.0013.029-.00131.03581-.00065.028-.00065.03679-.0013.027-.00065.043-.00065.02083-.002.0625-.00066.02181-.00065.043-.00065.02376-.0013.04037-.00065.02669-.00065.03776-.00065.02734-.00065.03581-.00066.029-.00065.03711v.02637l-.00065.03873-.00065.02637-.00065.04264v.02084l-.0013.05469v.02636l-.00065.04753v.02148l-.00065.042v.02636l-.00065.03874v.026l-.00066.03809v.09179l-.00065.03809v3.79622c0,104.44727,84.67123,189.11849,189.11849,189.11849h3.72591l.04362-.00032h.06511l.02474-.00033h.03971l.026-.00032.03841-.00033h.026l.03841-.00032.02669-.00033.04427-.00065h.01888l.06055-.00065.02278-.00033.04428-.00065.02474-.00032.03906-.00065.028-.00033.03646-.00065.0293-.00065.0332-.00065.03125-.00065.03385-.00066.02995-.00032.03451-.001.02929-.00065.03646-.00065.028-.00065.03515-.001.05925-.00163.0293-.00065.0332-.001.03-.00065.0345-.001.02865-.001.0345-.001.02865-.001.03516-.001.02864-.001.03386-.001.02929-.0013.03516-.001.02278-.001c.04753-.00163.09375-.00326.14128-.00521l.02083-.00065.04037-.00163.02083-.001.04037-.00163.02343-.001.03907-.00163.02213-.001.04167-.002.01888-.001.04427-.002.013-.00065c.0944-.00423.18945-.00912.28385-.014l.00391-.00032.054-.00293.00781-.00033.05208-.00293.00847-.00032.054-.00326h.002a41.97934,41.97934,0,0,0,5.0638-.60124A10.66663,10.66663,0,1,0,217.806,447.6696,20.82458,20.82458,0,0,1,214.0931,448h-3.64128C117.9349,448,42.66667,372.7321,42.66667,280.21484v-3.64127a20.30975,20.30975,0,0,1,4.849-13.26856,10.66687,10.66687,0,0,0-8.14-17.554Z" style="fill:#4da900"/><path d="M272.91536,464.91536l-187.582-187.582L68.418,260.418A15.08494,15.08494,0,0,0,47.08464,281.7513L64,298.66667l187.582,187.582a15.0857,15.0857,0,0,0,21.33333,0v-.0013A15.08412,15.08412,0,0,0,272.91536,464.91536Z" style="fill:#8ccd5b"/><rect x="85.33333" y="256" width="21.33333" height="64" rx="10.66666" ry="10.66666" style="fill:#8ccd5b"/><rect x="192" y="341.33333" width="21.33333" height="85.33333" rx="10.66666" ry="10.66666" style="fill:#8ccd5b"/><rect x="128" y="277.33333" width="21.33333" height="85.33333" rx="10.66666" ry="10.66666" style="fill:#8ccd5b"/><rect x="42.66667" y="320" width="85.33333" height="21.33333" rx="10.66666" ry="10.66666" style="fill:#8ccd5b"/><rect x="85.33333" y="362.66667" width="85.33333" height="21.33333" rx="10.66666" ry="10.66666" style="fill:#8ccd5b"/><path d="M480,384H469.33333A21.33355,21.33355,0,0,1,448,362.66667V352a10.66667,10.66667,0,1,0-21.33333,0v10.66667A21.33355,21.33355,0,0,1,405.33333,384H394.66667a10.66667,10.66667,0,1,0,0,21.33333h10.66666a21.33272,21.33272,0,0,1,21.33334,21.33334v10.66666a10.66667,10.66667,0,1,0,21.33333,0V426.66667a21.33272,21.33272,0,0,1,21.33333-21.33334H480A10.66667,10.66667,0,1,0,480,384Z" style="fill:#caefb7"/><path d="M117.33333,128H106.66667a21.33355,21.33355,0,0,1-21.33334-21.33333V96A10.66667,10.66667,0,1,0,64,96v10.66667A21.33355,21.33355,0,0,1,42.66667,128H32a10.66667,10.66667,0,1,0,0,21.33333H42.66667A21.33272,21.33272,0,0,1,64,170.66667v10.66666a10.66667,10.66667,0,1,0,21.33333,0V170.66667a21.33272,21.33272,0,0,1,21.33334-21.33334h10.66666a10.66667,10.66667,0,1,0,0-21.33333Z" style="fill:#e1ebfc"/><path d="M330.66667,64H320a21.33355,21.33355,0,0,1-21.33333-21.33333V32a10.66667,10.66667,0,0,0-21.33334,0V42.66667A21.33355,21.33355,0,0,1,256,64H245.33333a10.66666,10.66666,0,0,0,0,21.33333H256a21.33272,21.33272,0,0,1,21.33333,21.33334v10.66666a10.66667,10.66667,0,0,0,21.33334,0V106.66667A21.33272,21.33272,0,0,1,320,85.33333h10.66667a10.66667,10.66667,0,0,0,0-21.33333Z" style="fill:#fff8c6"/></g></svg>