<svg xmlns="http://www.w3.org/2000/svg" viewBox="0 0 512 512"><title>Artboard 121</title><g id="Hand_with_Leaf" data-name="Hand with Leaf"><path d="M299.96071,406.6274l-94.70592-94.70592a45.25477,45.25477,0,0,0-63.99991,0l-.00006.00007a45.25477,45.25477,0,0,0,0,63.99991l94.70593,94.70594Z" style="fill:#ec590a"/><path d="M194.58815,308.57529h0a15.08492,15.08492,0,0,1,15.08492,15.08492v78.01292A15.08493,15.08493,0,0,1,194.58816,416.758h0a15.08493,15.08493,0,0,1-15.08493-15.08493V323.66023a15.08494,15.08494,0,0,1,15.08494-15.08494Z" transform="translate(-199.45062 243.81756) rotate(-45.00005)" style="fill:#d34000"/><path d="M237.25482,407.9215l-74.66669-74.66668a45.25478,45.25478,0,0,0-63.99992,0l-.00006.00006a45.25477,45.25477,0,0,0,0,63.99991l74.66671,74.66671Z" style="fill:#ff690b"/><path d="M96.758,350.16992l0,0a30.16987,30.16987,0,0,1,42.66663,0l10.6667,10.6667a15.08493,15.08493,0,0,0,21.33331,0l0,0a15.08493,15.08493,0,0,1,21.33331,0l21.33336,21.33335a15.08493,15.08493,0,0,1,0,21.33331l-42.66669,42.66669a15.08493,15.08493,0,0,1-21.33331,0L96.758,392.83655A30.16987,30.16987,0,0,1,96.758,350.16992Z" style="fill:#ec590a"/><path d="M234.66667,256c75.96871,0,121.87885,15.02928,146.65039,27.24793a42.79366,42.79366,0,0,1,24.01627,38.41823V384a42.66666,42.66666,0,0,1-42.66666,42.66667h-256A42.66667,42.66667,0,0,1,64,384V321.66616a42.79366,42.79366,0,0,1,24.01627-38.41823C112.78781,271.02928,158.698,256,234.66667,256Z" style="fill:#4d2100"/><rect x="106.66667" y="320" width="256" height="85.33333" rx="42.66662" ry="42.66662" style="fill:#3d180b"/><path d="M384,320h64a42.66667,42.66667,0,0,1,42.66667,42.66667v42.66666A42.66667,42.66667,0,0,1,448,448H422.45912A127.02192,127.02192,0,0,0,352,469.33331l-.00006,0a127.02192,127.02192,0,0,1-70.45912,21.33332h-94.083a127.02191,127.02191,0,0,1-84.57515-32.25055l-46.18394-43.0312a41.98889,41.98889,0,0,1-4.39327-58.09541l.00006-.00007a41.98889,41.98889,0,0,1,59.597-5.18117l59.49781,53.22506H320V384l12.79993-21.33322Z" style="fill:#f4ac03"/><rect x="170.66669" y="405.33333" width="127.99998" height="42.66667" rx="21.33331" ry="21.33331" style="fill:#df8d00"/><path d="M426.66667,373.33333c0-41.23726-42.98067-74.66666-96-74.66666s-96,33.4294-96,74.66666Z" style="fill:#ffd432"/><path d="M223.99995,320H448a0,0,0,0,1,0,0V426.66667a0,0,0,0,1,0,0H223.99995a53.33328,53.33328,0,0,1-53.33328-53.33328v-.00011A53.33328,53.33328,0,0,1,223.99995,320Z" style="fill:#f4ac03"/><path d="M490.66667,405.33333A42.66666,42.66666,0,0,0,448,362.66667H405.33333A21.33272,21.33272,0,0,0,384,384v5.55062c0,23.87716-13.93839,44.79216-34.76151,56.47618q-5.49476,3.08316-10.74378,6.68783c-16.93157,11.65048-37.59008,16.61817-58.14274,16.61827l-92.89439.00043a105.3016,105.3016,0,0,1-70.03125-26.526l-33.263-30.99219a10.66723,10.66723,0,0,0-14.57943,15.57553l32.42578,30.21223h.0013l.09505.08855.00782.00781.01562.01432.026.02474.00391.00391c.00911.00781.01693.01562.02474.02343l.00651.00521.10547.09766.01562.01432c.069.06511.13282.125.19141.17839l.013.013.36719.34114a120.61411,120.61411,0,0,0,82.09631,32.25122l96.56069-.00017c25.99009,0,50.77156-8.82895,72.69436-22.78872A127.02012,127.02012,0,0,1,422.45964,448h25.54045a42.66658,42.66658,0,0,0,42.66658-42.66658Z" style="fill:#df8d00"/><path d="M224,320a53.10531,53.10531,0,0,0-46.05729,26.88932A21.07148,21.07148,0,0,1,192,341.33333a21.33272,21.33272,0,0,1,21.33333,21.33334v10.66666a32,32,0,0,0,64,0V362.66667a21.33272,21.33272,0,0,1,21.33334-21.33334H384V320Z" style="fill:#ffd432"/><path d="M192,373.3333v.00007a32,32,0,0,0,32,32h10.6667A21.33333,21.33333,0,0,0,256,384V362.66667a21.33334,21.33334,0,0,0-21.33333-21.33334H224A32,32,0,0,0,192,373.3333Z" style="fill:#fff8c6"/><rect x="362.66667" y="298.66667" width="21.33333" height="64" rx="10.66666" ry="10.66666" transform="translate(42.66667 704) rotate(-90)" style="fill:#ffd432"/><path d="M256,210.4518c0-104.44724,84.67122-189.11847,189.11847-189.11847h3.64133A41.90688,41.90688,0,0,1,490.66667,63.2402v3.64133C490.66667,171.32878,405.99544,256,301.5482,256h-3.64133A41.90688,41.90688,0,0,1,256,214.09313V210.4518Z" style="fill:#378900"/><rect x="384" y="128" width="85.33333" height="21.33333" rx="10.66666" ry="10.66666" transform="translate(853.33333 277.33333) rotate(-180)" style="fill:#216600"/><rect x="341.33333" y="170.66667" width="85.33333" height="21.33333" rx="10.66666" ry="10.66666" transform="translate(768 362.66667) rotate(-180)" style="fill:#216600"/><path d="M281.7513,230.2487,426.66667,85.33333,443.582,68.418A15.08494,15.08494,0,1,1,464.91536,89.7513L448,106.66667,303.08464,251.582a15.08569,15.08569,0,0,1-21.33334,0v-.0013A15.08413,15.08413,0,0,1,281.7513,230.2487Z" style="fill:#216600"/><path d="M338.55859,84.42936a10.62838,10.62838,0,0,0-7.237,2.83334l-.0039.00358-.11459.10579-.00846.00814a169.26687,169.26687,0,0,0-15.847,16.8304l-.00847.01009c-.0319.03972-.0651.08008-.09765.11947l-.00391.00521c-.06836.08333-.13672.16732-.20508.25065l-.01237.0153c-.02864.03483-.05729.07-.08528.10514l-.01888.02279c-.06511.08008-.13086.16081-.196.24121l-.02083.02571c-.026.03223-.05274.06478-.07878.09734l-.02018.02539c-.0651.08007-.12956.16015-.19466.24056l-.02149.027c-.02473.0306-.04882.06023-.07291.09082l-.0293.03614-.07682.096-.01888.02278c-.0293.03744-.05925.07455-.08919.11166l-.03581.04459c-.01953.02507-.03972.04981-.0599.07487l-.0345.04362c-.02214.028-.04427.05534-.06641.083l-.02865.03581c-.02929.03678-.05859.07324-.08723.11-.01368.01628-.02474.0306-.03777.04688-.01692.02181-.0358.04492-.05273.06673l-.04492.05632c-.01628.02018-.03255.04069-.04818.06119-.01693.02051-.03581.04493-.05208.06576-.02474.0306-.04883.06152-.07357.09212l-.04818.0612-.04036.05143-.05356.06738-.03173.04069-.192.24382-.02995.03841-.0586.07454-.028.03581c-.06836.08692-.13542.17253-.20313.25944l-.01692.02149c-.01888.02474-.04558.05892-.06511.08366l-.01888.02408c-.07422.09538-.14323.18425-.21745.28l-.0039.00521c-.026.0332-.04688.06055-.07292.09375l-.00846.01107c-.09961.12858-.20313.263-.30274.39225l-.00065.001q-4.31542,5.60742-8.15625,11.57324A10.6665,10.6665,0,0,0,321.88867,131.402a147.7749,147.7749,0,0,1,23.91341-28.47331,10.66682,10.66682,0,0,0-7.24349-18.49935ZM448,42.66667h-3.04167c-.02864,0-.0651,0-.09375.00032h-.1289l-.05469.00033h-.07422l-.05859.00032-.07292.00033-.05534.00032-.07487.00033h-.056l-.07682.00065h-.05208l-.07813.00065-.05338.00033-.084.00065-.04427.00032c-.03971,0-.071.00033-.11068.00066l-.02018.00032-.13021.001-.0306.00032-.09765.00065-.04623.00065-.08593.00066-.04623.00065-.082.001-.05143.00033-.07878.001-.05534.00065-.071.001-.05924.00065-.07422.001-.054.00065-.07943.0013-.04948.00065-.08789.00131-.04231.00065-.10482.00163-.02474.00032c-.04557.00065-.08529.0013-.13021.00228l-.02734.00033c-.03386.00065-.069.0013-.10287.00162l-.04232.001-.08593.0013-.05209.001-.07487.00163-.05989.001-.07031.0013-.056.00131-.07618.00162-.05338.001-.07943.00163-.04883.001-.08333.002-.04688.001-.10026.00228-.02669.00065-.12825.00293h-.00261c-.04492.00131-.08659.00228-.13151.00326l-.03581.001-.09049.00227-.05534.00131-.07617.002-.05339.00163-.07421.002-.0573.0013-.07356.00228-.056.0013-.07162.00228-.05794.00163-.07552.002-.05274.00163-.07421.00228-.0573.00163-.07747.00227-.04948.00163-.08724.00293-.043.0013-.1263.00391-.03906.0013-.09115.00293-.04752.00163-.08138.00293-.04883.00163-.08138.0026-.05078.00195-.07878.00261-.05208.002-.07292.00261-.0599.00227-.07031.00261-.05729.00228-.071.0026-.0599.00228-.07422.00293-.05143.002-.0905.00358-.03906.00131c-.04492.002-.08463.00358-.12956.0052l-.01041.00066-.11589.00455-.04883.002-.08007.00358-.05274.00227-.07487.00293-.05664.00261-.07226.00293-.05925.0026-.06706.00293-.06119.00293-.07162.00326-.05534.00228-.07747.00358-.04948.00228-.08724.00423-.04167.002c-.028.0013-.06054.0026-.08854.00423l-.04166.002-.12631.00585-.04362.00228-.084.00391-.0612.00325-.0651.00326-.06771.00325-.05925.00293-.06966.00359-.05924.00325-.06446.00326-.0638.00325-.0664.00358-.0599.00293-.06771.00358-.05794.00326-.07162.0039-.05664.00293-.06836.00391-.06445.00358-.06445.00358-.056.00293c-.04427.0026-.08789.00521-.13216.00749l-.06055.00358-.06445.00358-.06446.00391-.0638.00358-.06315.00358-.0638.0039-.06511.00391-.0638.00358-.06185.00391-.06575.0039-.0638.00391-.06446.00391-.06119.0039-.06641.00391-.06185.0039-.06575.00424-.0625.0039-.06381.00391-.07617.00488c-.03776.0026-.07422.00488-.112.00716l-.06185.00423-.0664.00424-.0612.0039-.06315.00423-.06511.00456-.06315.00391-.0651.00455-.06055.00424-.06706.00455-.06184.00391-.06771.00488-.05729.00391-.07227.00488-.05664.00423-.07487.00521-.05078.00358-.08724.00619-.041.00293c-.04427.00325-.07617.00553-.12044.00846l-.03255.00261c-.02735.002-.071.00488-.09831.00716l-.05794.00423-.07292.00521-.05338.0039-.07227.00554-.05794.00423-.07032.00521-.05989.00455-.06511.00489-.0625.00488-.06835.00521-.0573.00456-.07291.00553-.05339.00423-.07877.00619-.04883.0039-.084.00651-.04362.00358-.11588.00912-.01107.001-.12825.01042-.03516.00293c-.028.002-.0625.00488-.08984.00716l-.054.00456-.07292.00586-.05989.00488-.06641.00554-.05924.00488-.069.00586-.05924.00521-.06836.00553-.05794.00488-.06836.00586-.06055.00521-.07031.00619-.054.00455-.08008.00716-.04817.00424-.09375.00813-.03321.00293-.12239.01075-.0586.00553-.07031.00618-.05729.00521-.06836.00619-.05859.00521-.07031.00651-.0573.0052-.06966.00619-.05469.00521-.07682.00716-.05078.00456-.07357.00683-.05468.00521-.07292.00684-.05469.00521-.07161.00683-.056.00521-.071.00684-.10026.00976-.07812.00749-.05469.00553-.07227.00684-.056.00553-.07032.00684-.0625.00618-.06185.00619-.0651.00651-.0612.00618-.06575.00651-.06055.00619-.0651.00651-.0599.00618-.06706.00684-.06185.00618-.06185.00651-.07226.00717-.05339.00553c-.02734.00293-.067.00716-.0944.00977l-.03125.00325c-.04362.00456-.08138.00846-.125.01335l-.04427.00455-.08138.00847-.05794.00618-.06706.00716-.06055.00651-.0677.00717-.0586.00651-.0651.00683-.0625.00684-.06706.00716-.056.00618-.07226.00782-.05469.00618-.07487.00814-.05143.00586-.07683.00846-.04948.00554-.095.01074-.03.00325-.12565.014-.04427.00521-.08138.00911-.054.00619-.07162.00814-.05729.00651-.06966.00814-.05469.00618-.07161.00846-.05665.00652-.069.00813-.05794.00684-.06706.00781-.05924.00684-.07227.00879-.05143.00586-.07812.00944-.04883.00586-.09115.01074-.03385.00423-.125.015-.03386.00423c-.03255.00391-.06119.00717-.09375.0114l-.04231.00521c-.02735.00325-.05534.00651-.08269.01009l-.05143.00618-.07422.00912-.05273.00651-.07357.00911-.05273.00651-.07618.00977-.04882.00586-.07618.00976-.05143.00651-.07682.00944-.04883.00619-.07877.01009-.04818.00618-.08985.0114-.03515.00456-.12435.016-.043.00553-.08268.01074-.05143.00684-.07357.00944-.05469.00716-.07226.00944-.05274.00684-.07292.00976-.054.00716-.07292.00977-.05208.00683-.07292.00977-.05469.00749-.07422.00976-.04947.00651-.08008.01107-.04623.00619-.0944.01269-.02995.00423c-.04361.00586-.082.01107-.12565.01725l-.01627.00228-.112.0153-.026.00358-.09831.01368-.041.00553-.08528.012-.04558.00619-.07747.01074-.05208.00749-.07552.01074-.04883.00684-.07682.01074-.04948.00716-.07943.01107-.04557.00683-.07878.01107-.04818.00684-.09244.01334-.0306.00456c-.08724.01237-.16472.02376-.252.03646l-.041.00618c-.02735.00391-.05534.00782-.08268.012l-.05079.00748-.07617.01107-.04622.00684-.08073.012-.04557.00651-.082.01237-.04231.00619-.082.01237-.04688.00716-.082.01237-.04036.00586-.0879.01334-.04036.00619-.09245.014-.0319.00488c-.03776.00586-.07357.01139-.11133.01693l-.02343.00358-.11719.01823-.03255.00488-.0905.014-.04557.00716-.08138.01269-.043.00651-.08268.013-.04362.00683-.08464.013-.04036.00651-.08464.01335-.04167.00651-.08593.01367-.04037.00651-.08724.01367-.03776.00619-.099.01595-.026.0039-.25455.04135-.00521.00065-.12045.01953-.02408.0039-.099.01628-.03581.00586-.09115.015-.0358.00586-.0892.01465-.03841.00651-.08593.014-.043.00716-.08464.01432-.03776.00619-.09635.01627-.028.00456-.11458.01921-.00912.00163c-.12955.02181-.2539.043-.38281.0651l-.01953.00325-.10547.01791-.02995.00521-.0944.01627-.0345.00586c-.0319.00586-.0599.01042-.09245.01628l-.03385.00586-.0905.01562-.03581.00619-.09375.01627-.03125.00554-.09635.01692-.0293.00521c-.03776.00651-.069.01205-.10612.01888l-.01823.00326c-.12955.02278-.24935.04394-.37825.06706l-.0293.0052-.0957.01726-.03386.00618-.09049.01628-.03841.00683-.08724.01595-.03841.00684-.08594.01562-.041.00749-.08724.016-.0345.00651c-.03255.00586-.06511.01172-.09766.01791l-.02669.00488-.11068.02018-.013.00261c-.1289.02376-.2526.04687-.38151.071l-.01237.00228-.11263.02116-.02279.00423-.10156.0192-.02669.00489-.10026.0192-.02734.00521c-.03191.00586-.06381.01205-.09571.01823l-.03125.00586-.099.01888-.02474.00456-.10156.01953-.02474.00488-.11719.02246-.0052.001c-.12826.02474-.25391.04915-.38217.07422l-.01041.002-.11393.02246-.02149.00423-.10482.02051-.02278.00456c-.0319.00618-.07031.01367-.10222.02018l-.02474.00488-.099.01953-.02995.00586-.09636.01921-.02734.00553-.10221.02051-.02279.00456-.11589.02311-.00651.0013c-.12825.02572-.25455.05144-.38281.07748l-.0013.00032c-.04232.00879-.08073.0166-.1237.02507l-.01367.00293-.10677.02181-.03.00618-.0957.01986-.0293.00586c-.0319.00651-.0638.013-.0957.01985l-.0293.00586c-.0319.00684-.06836.01433-.10026.02084l-.02213.00455c-.03191.00684-.07618.016-.10808.02247l-.01627.00358c-.21289.04427-.41862.08756-.63151.13281l-.00717.00163-.11653.02474-.01693.00358-.10677.02278-.02214.00489-.10156.02181-.02539.00553-.10482.02246-.01692.00358-.10873.02376-.01758.00359c-.21223.04589-.41862.09114-.63085.138h-.00066l-.12369.02734-.00912.00228c-.04232.00911-.07487.0166-.11719.026l-.00911.002-.11393.02539-.01563.00326-.11393.02539-.00977.00228-.11718.02637-.00847.002c-.2539.057-.502.11328-.7552.17155l-.01107.0026-.11589.0267-.00846.002-.11393.02637-.01563.00358-.11393.02636-.00781.002c-.33789.07845-.67123.1569-1.00782.2373l-.0039.001-.12305.02929-.00195.00066a166.24473,166.24473,0,0,0-20.67839,6.40462,10.66656,10.66656,0,1,0,7.63281,19.9209A145.42937,145.42937,0,0,1,445.125,64H448a1.16688,1.16688,0,0,1,.41471.05241,10.66667,10.66667,0,0,0,8.19792-19.69531q-.3252-.13526-.6556-.26042l-.00325-.0013-.0586-.02181-.00195-.001-.05925-.02181-.002-.001-.05794-.02148-.00456-.00163-.05664-.02083-.00456-.00163-.05664-.02051-.00521-.002-.05664-.02018-.00586-.002-.05468-.01954-.00847-.00293-.05208-.01855-.01107-.00391-.05143-.0179-.00977-.00326-.05273-.01822-.00911-.00326-.05339-.01823-.00911-.00293-.05274-.0179-.00976-.00358-.05274-.01758-.00846-.00261-.054-.01822-.00911-.00293-.05274-.01726-.00976-.00325-.05013-.01628-.01368-.00423-.04752-.01562-.01432-.00424-.04883-.01562-.01172-.00391-.04948-.01562-.01367-.00423-.04818-.015-.01367-.00423-.04883-.0153-.01432-.00423-.04883-.015-.01432-.00455-.04753-.01433-.01758-.00488-.04427-.01367-.02018-.00586-.04427-.013-.01888-.00553-.04427-.013-.01953-.00553-.04427-.013-.02019-.00586-.04362-.01237-.02083-.00586-.04362-.01237-.02018-.00553-.04362-.01237-.02084-.00554-.04427-.01237-.01953-.00553-.04362-.01172-.02213-.00586-.043-.01172-.02083-.00553-.04362-.01172-.02084-.00553-.04362-.0114-.02148-.00553-.043-.01107-.02214-.00586-.04036-.01041-.02409-.00619-.04036-.01009-.02344-.00586-.04037-.01009-.02539-.00651-.0358-.00879-.02995-.00716-.03516-.00879-.02929-.00684-.03581-.00879-.02865-.00683-.03646-.00846-.02864-.00684-.03581-.00846-.0293-.00651-.03645-.00879-.0267-.00586-.03841-.00879-.02734-.00619-.03841-.00879-.02605-.00586-.03776-.00813-.02864-.00651-.03776-.00814-.02539-.00554-.04037-.00878-.02344-.00489-.04427-.00944-.02083-.00423-.04427-.00911-.02279-.00489-.04427-.00911-.02148-.00423-.04427-.00912-.02214-.00455-.04492-.00879-.02148-.00424-.04428-.00878-.02278-.00456-.04427-.00847-.02214-.00423-.04492-.00846-.02148-.00423-.04558-.00847-.02148-.0039-.04427-.00814-.02279-.00423-.04492-.00781-.02148-.00391-.04558-.00814-.02083-.00358-.04753-.00846-.01823-.00326-.04427-.00749-.02474-.0039-.04362-.00749-.02083-.00358-.04557-.00749-.02084-.00325-.04752-.00781-.01823-.00293-.04623-.00717-.02148-.00358-.04687-.00716-.01758-.0026-.04948-.00781-.01693-.00261-.05013-.00749-.01432-.002-.05209-.00749-.01627-.0026-.05209-.00749-.01432-.00195-.05273-.00749-.01563-.00228-.05273-.00716-.015-.002-.05273-.00716-.01562-.002-.05274-.00684-.015-.002-.05339-.00684-.015-.002-.05339-.00684-.01432-.00163-.05274-.00651-.01692-.00195-.05209-.00618-.01562-.002-.05339-.00618-.015-.00163-.054-.00619-.01432-.00162-.054-.00586-.015-.00163-.054-.00586-.01367-.0013-.05534-.00586-.013-.0013-.05664-.00554-.01107-.0013-.05664-.00521-.01432-.00162-.05534-.00521-.01237-.001-.05729-.00521-.01107-.001-.05794-.00521-.01042-.001-.05859-.00488-.01107-.001-.05794-.00488-.00846-.00065-.0599-.00489-.00846-.00065-.0599-.00455-.00781-.00033-.0599-.00456-.00911-.00065-.0599-.00423-.00976-.00065-.0599-.00391-.00977-.00065-.05989-.0039-.00912-.00065-.05989-.00359-.01042-.00065-.05989-.00358-.00977-.00065-.0599-.00325-.00976-.00033-.06055-.00325-.00911-.00066-.06055-.00293-.00977-.00032-.06054-.00293-.00912-.00033-.06119-.0026-.00847-.00033-.06185-.0026-.00846-.00033-.0612-.00227-.00976-.00033-.06055-.002-.00912-.00033-.06184-.002-.00847-.00033-.06185-.00162-.00911-.00033-.06185-.00163-.00846-.00032-.06185-.0013h-.00847l-.0625-.00131-.00781-.00032-.06315-.001H448.349l-.0638-.001h-.00586l-.06576-.00065h-.0039l-.06706-.00065h-.00326l-.06836-.00032H448Z" style="fill:#9fe27c"/><path d="M472.62435,32.41764a10.66687,10.66687,0,0,0-8.14,17.554,20.30977,20.30977,0,0,1,4.849,13.26855v3.64128c0,92.51725-75.26823,167.78516-167.78515,167.78516H297.9069a20.82458,20.82458,0,0,1-3.71289-.33041,10.66663,10.66663,0,0,0-3.79948,20.99219,41.97934,41.97934,0,0,0,5.0638.60124h.002l.054.00325.00847.00033.05208.00293.00781.00032.054.00293.0039.00033c.09441.00488.18946.00976.28386.014l.013.00065.04427.00195.01888.001.04167.00195.02213.001.03907.00162.02343.001.04037.00163.02083.001.04037.00163.02083.00065c.04753.002.09375.00358.14127.00521l.02279.001.03516.001.02929.00131.03386.001.02864.001.03516.001.02865.001.0345.001.02865.001.0345.001.02995.00065.0332.001.0293.00065.05925.00163.03515.001.028.00065.03645.00065.0293.00065.03451.001.02995.00032.03385.00065.03125.00065.0332.00065.0293.00066.03646.00065.028.00032.03906.00065.02474.00033.04428.00065.02278.00032.06055.00066h.01888l.04427.00065.02669.00032.03841.00033h.026l.03841.00032.026.00033h.03971l.02474.00032h.06511l.04362.00033h3.72591c104.44726,0,189.11849-84.67122,189.11849-189.11849V63.08529l-.00065-.03809v-.0918l-.00066-.03808v-.026l-.00065-.03874v-.02637l-.00065-.042V62.7627l-.00065-.04753V62.6888l-.0013-.05469v-.02083l-.00065-.04264-.00065-.02637-.00065-.03874v-.02636l-.00065-.03711-.00066-.029-.00065-.03581-.00065-.02735-.00065-.03776-.00065-.02669-.0013-.04036-.00065-.02377-.00065-.043-.00066-.02181-.00195-.0625-.00065-.02084-.00065-.043-.0013-.027-.00065-.03679-.00065-.028-.00131-.03581-.0013-.029-.00065-.03646-.0013-.02637-.0013-.03841-.00066-.02637-.0013-.04036-.0013-.02279-.0013-.0459-.00065-.01888c-.0013-.02083-.002-.04264-.00261-.06347l-.00065-.01367-.002-.04948-.00065-.02279-.00195-.04232-.00131-.02278-.0013-.04-.0013-.026-.00195-.03907-.00131-.02506-.0013-.03906-.0013-.02507-.002-.03971-.00131-.02474-.002-.03841-.0013-.02605-.00326-.06054-.0013-.02832-.00195-.03549-.0013-.02929-.002-.03418-.002-.0293-.00195-.03385-.002-.03125-.0013-.03158-.002-.0319-.00195-.03158-.002-.0319-.00195-.03222-.002-.03028-.002-.0345-.00195-.02962-.0026-.04525-.00326-.04069-.00195-.03776-.002-.02637-.0026-.03743-.00195-.028-.00261-.0345-.002-.02963-.002-.03385-.00261-.03027-.00195-.03223-.0026-.0306-.002-.03157-.0026-.03321-.002-.02311-.00261-.04036-.00065-.00359-.00651-.08919-.0026-.028-.00261-.03353-.0026-.0293-.00261-.0332-.00195-.0293-.00326-.0345-.002-.028-.00325-.03385-.002-.02865-.00325-.03515-.002-.02572-.00325-.03646-.0026-.02506L490.5,59.47852l-.002-.02474-.00586-.06446-.00326-.03092-.0026-.03516-.00261-.028-.0039-.03614-.002-.02441-.0039-.03841-.00195-.02376-.00391-.03939-.00195-.02018-.00456-.04167-.002-.01953-.00391-.04232-.0013-.01595-.00521-.0459v-.00423c-.00586-.05339-.01107-.10612-.01693-.15951l-.0013-.01562-.00456-.04-.00195-.02246-.00456-.03971-.0026-.02149-.00391-.03841-.0026-.02376-.00456-.03874-.0026-.02214-.00391-.03873-.0026-.02149-.00456-.042-.00065-.00521c-.00586-.05176-.01237-.10416-.01823-.15592l-.002-.01758-.00585-.04427-.00131-.0153-.0052-.04264-.00261-.02051-.00521-.04069-.002-.01856-.00521-.04231-.0026-.01888-.00521-.04362-.0013-.01075c-.00977-.07487-.01888-.14843-.0293-.223v-.0026c-.002-.01595-.00391-.03158-.00651-.0472l-.002-.01433-.00586-.04524-.002-.01563-.00586-.042-.0026-.01986-.00586-.043-.002-.01432-.00651-.0472-.00131-.00781c-.01562-.11328-.0319-.22559-.04817-.33854l-.0013-.00684-.00717-.05208-.0013-.00651-.00781-.05339-.00065-.0039q-.03027-.20166-.0625-.40267h0l-.00912-.05567-.00065-.00423-.00911-.05469V56.4401a41.74753,41.74753,0,0,0-9.3431-20.24251,10.64381,10.64381,0,0,0-8.15039-3.77995Z" style="fill:#216600"/><path d="M239.08464,251.582,426.66667,64,443.582,47.08464A15.08494,15.08494,0,0,1,464.91536,68.418L448,85.33333l-187.582,187.582a15.08568,15.08568,0,0,1-21.33333,0v-.0013A15.08411,15.08411,0,0,1,239.08464,251.582Z" style="fill:#6ec030"/><rect x="405.33333" y="42.66667" width="21.33333" height="64" rx="10.66666" ry="10.66666" transform="translate(832 149.33333) rotate(180)" style="fill:#6ec030"/><rect x="298.66667" y="128" width="21.33333" height="85.33333" rx="10.66666" ry="10.66666" transform="translate(618.66667 341.33333) rotate(180)" style="fill:#6ec030"/><rect x="362.66667" y="64" width="21.33333" height="85.33333" rx="10.66666" ry="10.66666" transform="translate(746.66667 213.33333) rotate(-180)" style="fill:#6ec030"/><rect x="384" y="106.66667" width="85.33333" height="21.33333" rx="10.66666" ry="10.66666" transform="translate(853.33333 234.66667) rotate(-180)" style="fill:#6ec030"/><rect x="341.33333" y="149.33333" width="85.33333" height="21.33333" rx="10.66666" ry="10.66666" transform="translate(768 320) rotate(-180)" style="fill:#6ec030"/><path d="M239.08464,251.582l-4.418,4.418,38.24869-38.2487a15.08495,15.08495,0,1,1,21.33334,21.33334L256,277.33333l4.418-4.418a15.08568,15.08568,0,0,1-21.33333,0v-.0013A15.08411,15.08411,0,0,1,239.08464,251.582Z" style="fill:#4da900"/><path d="M256,210.4518C256,106.00456,171.32878,21.33333,66.88153,21.33333H63.2402A41.90688,41.90688,0,0,0,21.33333,63.2402v3.64133C21.33333,171.32878,106.00456,256,210.4518,256h3.64133A41.90688,41.90688,0,0,0,256,214.09313V210.4518Z" style="fill:#6ec030"/><rect x="42.66667" y="128" width="85.33333" height="21.33333" rx="10.66666" ry="10.66666" style="fill:#4da900"/><rect x="85.33333" y="170.66667" width="85.33333" height="21.33333" rx="10.66666" ry="10.66666" style="fill:#4da900"/><path d="M230.2487,230.2487,85.33333,85.33333,68.418,68.418A15.08494,15.08494,0,0,0,47.08464,89.7513L64,106.66667,208.91536,251.582a15.08569,15.08569,0,0,0,21.33334,0v-.0013A15.08413,15.08413,0,0,0,230.2487,230.2487Z" style="fill:#4da900"/><path d="M173.44141,84.42936a10.66682,10.66682,0,0,0-7.24349,18.49935A147.7749,147.7749,0,0,1,190.11133,131.402a10.6665,10.6665,0,0,0,17.96224-11.50879q-3.83888-5.96582-8.15625-11.57324l-.00065-.001c-.09961-.12923-.20313-.26367-.30274-.39225l-.00846-.01107c-.026-.0332-.04688-.06055-.07292-.09375l-.0039-.00521c-.07422-.0957-.14323-.18457-.21745-.28l-.01888-.02408c-.01953-.02474-.04623-.05892-.06511-.08366l-.01692-.02149c-.06771-.08691-.13477-.17252-.20313-.25944l-.028-.03581-.0586-.07454-.02994-.03841-.19206-.24382-.0319-.04069-.05339-.06738-.04036-.05143-.04818-.0612c-.02474-.0306-.04883-.06152-.07357-.09212-.01627-.02083-.03515-.04525-.05208-.06576-.01563-.0205-.0319-.041-.04818-.06119l-.04492-.05632c-.01693-.02181-.03581-.04492-.05273-.06673-.013-.01628-.02409-.0306-.03777-.04688-.02864-.03678-.05794-.07324-.08723-.11L198.09961,106c-.02214-.02767-.04427-.055-.06641-.083l-.0345-.04362c-.02018-.02506-.04037-.0498-.0599-.07487l-.03581-.04459c-.02994-.03711-.05989-.07422-.08919-.11166l-.01888-.02278-.07682-.096-.0293-.03614c-.02409-.03059-.04817-.06022-.07291-.09082l-.02149-.027c-.0651-.08041-.12956-.16049-.19466-.24056l-.02018-.02539c-.026-.03256-.05274-.06511-.07878-.09734l-.02083-.02571c-.06511-.0804-.13086-.16113-.196-.24121l-.01888-.02279c-.028-.03515-.05664-.07031-.08528-.10514l-.01237-.0153c-.06836-.08333-.13672-.16732-.20508-.25065l-.00391-.00521c-.03255-.03939-.06575-.07975-.09765-.11947l-.00847-.01009a169.26687,169.26687,0,0,0-15.847-16.8304l-.00846-.00814-.11459-.10579-.0039-.00358a10.62838,10.62838,0,0,0-7.237-2.83334ZM64,42.66667h-.071l-.06836.00032h-.00326l-.06706.00065h-.0039l-.06576.00065h-.00586l-.0638.001h-.00716l-.06315.001-.00781.00032-.0625.0013H63.502l-.06185.00131-.00846.00032-.06185.00163-.00911.00033-.06185.00162-.00847.00033-.06184.002-.00912.00033-.06055.002-.00976.00033-.0612.00227-.00846.00033-.06185.0026-.00847.00033-.06119.0026-.00912.00033-.06054.00293-.00977.00032-.06055.00293-.00911.00066-.06055.00325-.00976.00033-.0599.00325-.00977.00065-.05989.00358-.01042.00065-.05989.00359-.00912.00065-.05989.0039-.00977.00065-.0599.00391-.00976.00065-.0599.00423-.00911.00065-.0599.00456-.00781.00033-.0599.00455-.00846.00065-.0599.00489-.00846.00065-.05794.00488-.01107.001-.05859.00488-.01042.001-.05794.00521-.01107.001-.05729.00521-.01237.001-.05534.00521-.01432.00162-.05664.00521-.01107.0013-.05664.00554-.013.0013-.05534.00586-.01367.0013-.054.00586-.015.00163-.054.00586-.01432.00162-.054.00619-.015.00163-.05339.00618-.01562.002-.05209.00618-.01692.00195-.05274.00651-.01432.00163-.05339.00684-.015.002-.05339.00684-.015.002-.05273.00684-.01563.002-.05273.00716-.015.002-.05273.00716-.01563.00228-.05273.00749-.01432.00195-.05209.00749-.01627.0026-.05209.00749-.01432.002-.05013.00749-.01693.00261-.04948.00781-.01758.0026-.04687.00716-.02148.00358-.04623.00717-.01823.00293-.04752.00781-.02084.00325-.04557.00749-.02083.00358-.04362.00749-.02474.0039-.04427.00749-.01823.00326-.04753.00846-.02083.00358-.04557.00814-.02149.00391-.04492.00781-.02279.00423-.04427.00814-.02148.0039-.04558.00847-.02148.00423-.04492.00846-.02214.00423-.04427.00847-.02278.00456-.04428.00878-.02148.00424-.04492.00878-.02214.00456-.04427.00912-.02148.00423-.04427.00911-.02279.00489-.04427.00911-.02083.00423-.04427.00944-.02344.00489-.04037.00878-.02539.00554-.03776.00814-.02864.00651-.03776.00813-.026.00586-.03841.00879-.02734.00619-.03841.00879-.0267.00586-.03645.00879-.0293.00651-.03581.00846-.02864.00684-.03646.00846-.02865.00683-.0358.00879-.0293.00684-.03516.00879-.02995.00716-.0358.00879-.02539.00651-.04037.01009-.02344.00586-.04036.01009-.02409.00619-.04036.01041-.02214.00586-.043.01107-.02148.00553-.04362.0114-.02084.00553-.04362.01172-.02083.00553-.043.01172-.02213.00586-.04362.01172-.01953.00553-.04427.01237-.02084.00554-.04362.01237-.02018.00553-.04362.01237-.02083.00586-.04362.01237-.02019.00586-.04427.013-.01953.00553-.04427.013-.01888.00553-.04427.013-.02018.00586-.04427.01367-.01758.00488-.04753.01433-.01432.00455-.04883.015-.01432.00423-.04883.0153-.01367.00423-.04818.015-.01367.00423-.04948.01562-.01172.00391-.04883.01562-.01432.00424-.04752.01562-.01368.00423-.05013.01628-.00976.00325-.05274.01726-.00911.00293-.054.01822-.00846.00261-.05274.01758-.00976.00358-.05274.0179-.00911.00293-.05339.01823-.00911.00326-.05273.01822-.00977.00326-.05143.0179-.01107.00391-.05208.01855-.00847.00293-.05468.01954-.00586.002-.05664.02018-.00521.002-.05664.02051-.00456.00163-.05664.02083-.00456.00163-.05794.02148-.00195.001-.05925.02181-.002.001-.0586.02181-.00325.0013q-.33007.125-.6556.26042a10.66667,10.66667,0,0,0,8.19792,19.69531A1.16659,1.16659,0,0,1,64,64h2.875a145.42937,145.42937,0,0,1,52.15951,9.59473,10.66656,10.66656,0,0,0,7.63281-19.9209,166.24473,166.24473,0,0,0-20.67839-6.40462l-.00195-.00066-.12305-.02929-.0039-.001c-.33659-.0804-.66993-.15885-1.00782-.2373l-.00781-.002-.11393-.02636-.01563-.00358-.11393-.02637-.00846-.002-.11589-.0267-.01107-.0026c-.25325-.05827-.5013-.11459-.7552-.17155l-.00847-.002-.11718-.02637-.00977-.00228-.11393-.02539-.01563-.00326-.11393-.02539-.00911-.002c-.04232-.00944-.07487-.01693-.11719-.026L103.196,46.625l-.12369-.02734h-.00066c-.21223-.04688-.41862-.09213-.63085-.138l-.01758-.00359-.10873-.02376-.01692-.00358-.10482-.02246-.02539-.00553-.10156-.02181-.02214-.00489-.10677-.02278-.01693-.00358-.11653-.02474-.00717-.00163c-.21289-.04525-.41862-.08854-.63151-.13281l-.01627-.00358c-.0319-.00651-.07617-.01563-.10808-.02247l-.02213-.00455c-.0319-.00651-.06836-.014-.10026-.02084l-.0293-.00586c-.0319-.00683-.0638-.01334-.0957-.01985l-.0293-.00586-.0957-.01986-.02995-.00618-.10677-.02181-.01367-.00293c-.043-.00847-.08138-.01628-.1237-.02507l-.0013-.00032c-.12826-.026-.25456-.05176-.38281-.07748l-.00651-.0013-.11589-.02311-.02279-.00456-.10221-.02051-.02734-.00553-.09636-.01921-.02995-.00586-.099-.01953-.02474-.00488c-.0319-.00651-.07032-.014-.10222-.02018L99.36,45.82259l-.10482-.02051-.02149-.00423-.11393-.02246-.01041-.002c-.12826-.02507-.25391-.04948-.38217-.07422l-.0052-.001-.11719-.02246-.02474-.00488-.10156-.01953-.02474-.00456-.099-.01888-.03125-.00586c-.0319-.00618-.0638-.01237-.09571-.01823l-.02734-.00521-.10026-.0192-.02669-.00489-.10156-.0192-.02279-.00423L97.83659,45.53l-.01237-.00228c-.12891-.02409-.25261-.0472-.38151-.071l-.013-.00261-.11068-.02018-.02669-.00488c-.03255-.00619-.06511-.01205-.09766-.01791l-.0345-.00651-.08724-.016-.041-.00749-.08594-.01562-.03841-.00684-.08724-.01595-.03841-.00683-.09049-.01628-.03386-.00618-.0957-.01726-.0293-.0052c-.1289-.02312-.2487-.04428-.37825-.06706l-.01823-.00326c-.03711-.00683-.06836-.01237-.10612-.01888l-.0293-.00521-.09635-.01692-.03125-.00554-.09375-.01627-.03581-.00619-.0905-.01562-.03385-.00586c-.03255-.00586-.06055-.01042-.09245-.01628l-.0345-.00586-.0944-.01627-.02995-.00521-.10547-.01791-.01953-.00325c-.12891-.02214-.25326-.04329-.38281-.0651l-.00912-.00163-.11458-.01921-.028-.00456-.09635-.01627-.03776-.00619-.08464-.01432-.043-.00716-.08593-.014-.03841-.00651-.0892-.01465-.0358-.00586-.09115-.015-.03581-.00586-.099-.01628-.02408-.0039-.12045-.01953-.00521-.00065-.25455-.04135-.026-.0039-.099-.01595-.03776-.00619-.08724-.01367-.04037-.00651-.08593-.01367-.04167-.00651-.08464-.01335-.04036-.00651-.08464-.013-.04362-.00683-.08268-.013-.043-.00651-.08138-.01269-.04557-.00716-.0905-.014-.03255-.00488-.11719-.01823-.02343-.00358c-.03776-.00554-.07357-.01107-.11133-.01693l-.0319-.00488-.09245-.014-.04036-.00619-.08789-.01334L91.97526,44.54l-.082-.01237-.04688-.00716-.082-.01237L91.722,44.502l-.082-.01237-.04557-.00651-.08073-.012-.04622-.00684-.07617-.01107-.05079-.00748c-.02734-.00423-.05533-.00814-.08268-.012l-.041-.00618c-.08724-.0127-.16472-.02409-.252-.03646l-.0306-.00456-.09244-.01334-.04818-.00684-.07878-.01107-.04557-.00683-.07943-.01107-.04948-.00716-.07682-.01074-.04883-.00684-.07552-.01074-.05208-.00749-.07747-.01074-.04558-.00619-.08528-.012-.041-.00553-.09831-.01368-.026-.00358-.112-.0153-.01627-.00228c-.04362-.00618-.082-.01139-.12565-.01725l-.02995-.00423-.0944-.01269-.04623-.00619-.08008-.01107-.04947-.00651-.07422-.00976-.05469-.00749L89.15755,44.14l-.05208-.00683-.07292-.00977-.054-.00716-.07292-.00976-.05274-.00684-.07226-.00944-.05469-.00716-.07357-.00944-.05143-.00684-.08268-.01074-.043-.00553-.12435-.016L88.31576,44.03l-.08985-.0114-.04818-.00618-.07877-.01009-.04883-.00619-.07682-.00944-.05143-.00651-.07618-.00976-.04882-.00586-.07618-.00977-.05273-.00651-.07357-.00911-.05273-.00651-.07422-.00912-.05143-.00618c-.02735-.00358-.05534-.00684-.08269-.01009L87.291,43.902c-.03256-.00423-.0612-.00749-.09375-.0114l-.03386-.00423-.125-.015-.03385-.00423-.09115-.01074-.04883-.00586-.07812-.00944-.05143-.00586-.07227-.00879-.05924-.00684-.06706-.00781-.05794-.00684-.069-.00814-.05665-.00651-.07161-.00846-.05469-.00618-.06966-.00814-.05729-.00651-.07162-.00814-.054-.00619-.08138-.00911-.04427-.00521-.12565-.014-.02995-.00325-.09505-.01074-.04948-.00554-.07683-.00846-.05143-.00586-.07487-.00814-.05469-.00618-.07226-.00782-.056-.00618-.06706-.00716-.0625-.00684-.0651-.00683-.0586-.00651-.0677-.00717-.06055-.00651-.06706-.00716-.05794-.00618-.08138-.00847L84.53,43.58887c-.04362-.00489-.08138-.00879-.125-.01335l-.03125-.00325c-.02735-.00261-.06706-.00684-.0944-.00977l-.05339-.00553-.07226-.00717-.06185-.00651L84.03,43.53711l-.06706-.00684-.0599-.00618-.0651-.00651-.06055-.00619-.06575-.00651-.0612-.00618-.0651-.00651-.06185-.00619-.0625-.00618-.07031-.00684-.056-.00553-.07227-.00684-.05469-.00553-.07812-.00749-.10026-.00976-.071-.00684-.056-.00521-.07161-.00683-.05469-.00521-.07291-.00684-.05469-.00521-.07357-.00683-.05078-.00456-.07682-.00716-.05469-.00521-.06966-.00619-.05729-.0052L82.19531,43.36l-.05859-.00521-.06836-.00619-.05729-.00521-.07031-.00618-.0586-.00553-.12239-.01075-.03321-.00293-.09375-.00813-.04817-.00424-.08008-.00716-.054-.00455-.07031-.00619-.06055-.00521-.06836-.00586-.05794-.00488-.06836-.00553-.05924-.00521-.069-.00586-.05924-.00488-.06641-.00554-.05989-.00488-.07292-.00586-.054-.00456c-.02734-.00228-.06184-.00521-.08984-.00716l-.03516-.00293L80.431,43.209l-.01107-.001-.11588-.00912-.04362-.00358-.084-.00651-.04883-.0039-.07877-.00619-.05339-.00423-.07291-.00553-.0573-.00456-.06835-.00521-.0625-.00488-.06511-.00489-.05989-.00455-.07032-.00521-.05794-.00423-.07227-.00554-.05338-.0039-.07292-.00521-.05794-.00423c-.02734-.00228-.071-.00521-.09831-.00717l-.03255-.0026c-.04427-.00293-.07617-.00521-.12044-.00846l-.041-.00293-.08724-.00619-.05078-.00358-.07487-.00521-.05664-.00423-.07227-.00488-.05729-.00391-.06771-.00488-.06184-.00391-.06706-.00455L78.276,43.0498l-.0651-.00455-.06315-.00391-.06511-.00456-.06315-.00423-.0612-.0039-.0664-.00424-.06185-.00423c-.03776-.00228-.07422-.00456-.112-.00716l-.07617-.00488-.0638-.00391-.0625-.0039-.06576-.00424-.06185-.0039-.06641-.00391-.06119-.00391-.06446-.0039-.0638-.00391-.06575-.0039-.06185-.00391-.0638-.00358-.06511-.00391-.0638-.0039-.06315-.00358-.0638-.00358-.06446-.00391-.06445-.00358-.06055-.00358c-.04427-.00228-.08789-.00489-.13216-.00749l-.056-.00293-.06445-.00358-.06445-.00358L76.11,42.91764l-.05664-.00293-.07162-.0039-.05794-.00326-.06771-.00358-.0599-.00293-.0664-.00358-.0638-.00325-.06446-.00326-.05924-.00325-.06966-.00359-.05925-.00293-.06771-.00325-.0651-.00326-.0612-.00325-.084-.00391-.04362-.00228-.12631-.00586-.04166-.002c-.028-.00163-.06055-.00293-.08854-.00423l-.04167-.002-.08724-.00423-.04948-.00228-.07747-.00358-.05534-.00228-.07162-.00326-.06119-.00293-.06706-.00293-.05925-.0026-.07226-.00293-.05664-.00261-.07487-.00293-.05274-.00227-.08007-.00358-.04883-.002-.11589-.00455-.01041-.00066c-.04493-.00162-.08464-.00325-.12956-.0052l-.03906-.00131-.0905-.00358-.05143-.002-.07422-.00293-.0599-.00228-.071-.0026-.05729-.00228L73.11,42.78092l-.0599-.00227-.07292-.00261-.05208-.002-.07878-.00261-.05078-.00195-.08138-.0026-.04883-.00163-.08138-.00293-.04752-.00163-.09115-.00293-.03906-.0013L72.28,42.7526l-.043-.0013-.08724-.00293-.04948-.00163-.07747-.00227-.0573-.00163-.07421-.00228-.05274-.00163-.07552-.002-.05794-.00163-.07162-.00228-.056-.0013-.07356-.00228-.0573-.0013-.07421-.002-.05339-.00163-.07617-.002-.05534-.00131-.09049-.00227-.03581-.001c-.04492-.001-.08659-.002-.13151-.00326h-.00261l-.12825-.00293-.02669-.00065-.10026-.00228-.04688-.001-.08333-.002-.04883-.001-.07943-.00163-.05338-.001-.07618-.00162-.056-.00131-.07031-.0013-.05989-.001-.07487-.00163-.05209-.001-.08593-.0013-.04232-.001c-.03386-.00032-.069-.001-.10287-.00162l-.02734-.00033c-.04492-.001-.08464-.00163-.13021-.00228l-.02474-.00032-.10482-.00163-.04231-.00065-.08789-.00131-.04948-.00065-.07943-.0013-.054-.00065-.07422-.001L69.00586,42.68l-.071-.001-.05534-.00065-.07878-.001-.05143-.00033-.082-.001-.04623-.00065-.08593-.00066-.04623-.00065-.09765-.00065-.0306-.00032-.13021-.001-.02018-.00033c-.03972-.00032-.071-.00065-.11068-.00065l-.04427-.00032-.084-.00065-.05338-.00033-.07813-.00065h-.05208l-.07682-.00065h-.056l-.07487-.00033-.05534-.00032-.07292-.00033-.05859-.00032H67.319l-.05469-.00033h-.1289c-.02865-.00032-.06511-.00032-.09375-.00032H64Z" style="fill:#9fe27c"/><path d="M39.37565,32.41764a10.64381,10.64381,0,0,0-8.15039,3.77995,41.74753,41.74753,0,0,0-9.3431,20.24251v.00228l-.00911.05469-.00065.00423-.00912.05567h0q-.03222.20116-.0625.40267l-.00065.0039-.00781.05339-.0013.00651-.00717.05208-.0013.00684c-.01627.11295-.03255.22526-.04817.33854l-.00131.00781-.00651.0472-.002.01432-.00586.043-.0026.01986-.00586.042-.002.01563-.00586.04524-.002.01433c-.0026.01562-.00456.03125-.00651.0472v.0026c-.01042.07455-.01953.14811-.0293.223l-.0013.01075-.00521.04362-.0026.01888-.00521.04231-.002.01856-.00521.04069-.0026.02051-.00521.04264-.00131.0153-.00585.04427-.002.01758c-.00586.05176-.01237.10416-.01823.15592l-.00065.00521-.00456.042-.0026.02149-.00391.03873-.0026.02214-.00456.03874-.0026.02376-.00391.03841-.0026.02149-.00456.03971-.002.02246-.00456.04-.0013.01562c-.00586.05339-.01107.10612-.01693.15951v.00423l-.00521.0459-.0013.01595-.00391.04232-.002.01953-.00456.04167-.002.02018-.00391.03939-.002.02376-.0039.03841-.002.02441-.0039.03614-.00261.028-.0026.03516-.00326.03092-.00586.06446-.002.02474-.00326.03776-.0026.02506-.00325.03646-.002.02572-.00325.03515-.002.02865-.00325.03385-.002.028-.00326.0345-.00195.0293-.00261.0332-.0026.0293-.00261.03353-.0026.028-.00651.08919-.00065.00359-.0026.04036-.002.02311-.0026.03321-.002.03157-.0026.0306-.00195.03223-.00261.03027-.002.03385-.002.02963-.00261.0345-.00195.028-.0026.03743-.002.02637-.002.03776-.00326.04069-.0026.04525-.002.02962-.002.0345-.002.03028-.00195.03222-.002.0319-.002.03158-.002.0319-.0013.03158-.002.03125-.00195.03385-.002.0293-.002.03418-.0013.02929-.002.03549-.0013.02832-.00326.06054-.0013.02605-.002.03841-.00131.02474-.002.03971-.0013.02506-.0013.03907-.00131.02506-.002.03907-.0013.026-.0013.04-.00131.02278-.002.04232-.00065.02279-.002.04948-.00065.01367c-.00065.02083-.00131.04264-.00261.06347l-.00065.01888-.0013.0459-.0013.02279-.0013.04036-.00066.02637-.0013.03841-.0013.02637-.00065.03646-.0013.029-.00131.03581-.00065.028-.00065.03679-.0013.027-.00065.043-.00065.02084-.002.0625-.00066.02181-.00065.043-.00065.02377-.0013.04036-.00065.02669-.00065.03776-.00065.02735-.00065.03581-.00066.029-.00065.03711v.02636l-.00065.03874-.00065.02637-.00065.04264v.02083l-.0013.05469v.02637l-.00065.04753v.02148l-.00065.042v.02637l-.00065.03874v.026l-.00066.03808v.0918l-.00065.03809v3.79622C21.33333,171.32878,106.00456,256,210.45182,256h3.72591l.04362-.00033h.06511l.02474-.00032h.03971l.026-.00033.03841-.00032h.026l.03841-.00033.02669-.00032.04427-.00065h.01888l.06055-.00066.02278-.00032.04428-.00065.02474-.00033.03906-.00065.028-.00032.03646-.00065.0293-.00066.0332-.00065.03125-.00065.03385-.00065.02995-.00032.03451-.001.02929-.00065.03646-.00065.028-.00065.03515-.001.05925-.00163.0293-.00065.0332-.001.03-.00065.0345-.001.02865-.001.0345-.001.02865-.001.03516-.001.02864-.001.03386-.001.02929-.00131.03516-.001.02278-.001c.04753-.00163.09375-.00325.14128-.00521l.02083-.00065.04037-.00163.02083-.001.04037-.00163.02343-.001.03907-.00162.02213-.001.04167-.00195.01888-.001.04427-.00195.013-.00065c.0944-.00424.18945-.00912.28385-.014l.00391-.00033.054-.00293.00781-.00032.05208-.00293.00847-.00033.054-.00325h.002a41.97934,41.97934,0,0,0,5.0638-.60124,10.66664,10.66664,0,1,0-3.79948-20.99219,20.82458,20.82458,0,0,1-3.71289.33041h-3.64128c-92.51692,0-167.78515-75.26791-167.78515-167.78516V63.24023a20.30972,20.30972,0,0,1,4.849-13.26855,10.66688,10.66688,0,0,0-8.14-17.554Z" style="fill:#4da900"/><path d="M272.91536,251.582,85.33333,64,68.418,47.08464A15.08494,15.08494,0,0,0,47.08464,68.418L64,85.33333l187.582,187.582a15.08568,15.08568,0,0,0,21.33333,0v-.0013A15.08411,15.08411,0,0,0,272.91536,251.582Z" style="fill:#8ccd5b"/><rect x="85.33333" y="42.66667" width="21.33333" height="64" rx="10.66666" ry="10.66666" style="fill:#8ccd5b"/><rect x="192" y="128" width="21.33333" height="85.33333" rx="10.66666" ry="10.66666" style="fill:#8ccd5b"/><rect x="128" y="64" width="21.33333" height="85.33333" rx="10.66666" ry="10.66666" style="fill:#8ccd5b"/><rect x="42.66667" y="106.66667" width="85.33333" height="21.33333" rx="10.66666" ry="10.66666" style="fill:#8ccd5b"/><rect x="85.33333" y="149.33333" width="85.33333" height="21.33333" rx="10.66666" ry="10.66666" style="fill:#8ccd5b"/></g></svg>