<svg xmlns="http://www.w3.org/2000/svg" viewBox="0 0 512 512"><g data-name="Growing Plant"><rect x="234.667" y="234.667" width="42.667" height="256" rx="21.333" ry="21.333" style="fill:#8ccd5b"/><path d="M256 210.452c0-104.447 84.671-189.119 189.118-189.119h3.642a41.907 41.907 0 0 1 41.907 41.907v3.642C490.667 171.329 405.995 256 301.548 256h-3.641A41.907 41.907 0 0 1 256 214.093v-3.641z" style="fill:#378900"/><rect x="384" y="128" width="85.333" height="21.333" rx="10.667" ry="10.667" transform="rotate(-180 426.667 138.667)" style="fill:#216600"/><rect x="341.333" y="170.667" width="85.333" height="21.333" rx="10.667" ry="10.667" transform="rotate(-180 384 181.333)" style="fill:#216600"/><path d="M281.751 230.249 426.667 85.333l16.915-16.915a15.085 15.085 0 1 1 21.333 21.333L448 106.667 303.085 251.582a15.086 15.086 0 0 1-21.334 0v-.001a15.084 15.084 0 0 1 0-21.332z" style="fill:#216600"/><path d="M338.559 84.43a10.628 10.628 0 0 0-7.237 2.833l-.004.003-.115.106-.008.008a169.267 169.267 0 0 0-15.847 16.83l-.009.01-.097.12-.004.005-.205.251-.013.015-.085.105-.019.023-.196.241-.02.026-.08.098-.02.025-.194.24-.022.027-.073.091-.03.036-.076.096-.019.023-.089.112-.036.044-.06.075-.034.044-.067.083-.028.036-.088.11-.037.047-.053.066-.045.057-.048.06-.052.067-.074.092-.048.061-.04.051-.054.068-.032.04-.192.244-.03.039-.058.074-.028.036-.203.26-.017.021a7.303 7.303 0 0 1-.065.084l-.02.024-.217.28-.004.005-.072.094-.009.01-.303.393v.001q-4.316 5.607-8.157 11.573a10.666 10.666 0 0 0 17.963 11.509 147.775 147.775 0 0 1 23.913-28.473 10.667 10.667 0 0 0-7.243-18.5zM448 42.666H444.548l-.073.001h-.186l-.077.001h-.13l-.053.001h-.084l-.045.001h-.11l-.02.001-.13.001h-.031l-.098.001h-.046l-.086.001-.046.001-.082.001h-.052l-.079.001-.055.001-.07.001h-.06l-.074.002h-.054l-.08.002h-.05l-.087.002h-.042l-.105.002h-.025c-.046 0-.085.002-.13.003h-.028l-.102.001-.043.001-.086.002h-.052l-.075.002-.06.001-.07.002-.056.001-.076.002h-.053l-.08.002-.049.001-.083.002-.047.001-.1.003h-.027l-.128.003h-.003l-.131.003-.036.001-.09.003-.056.001-.076.002-.053.002-.075.002h-.057l-.073.003-.056.001-.072.003-.058.001-.076.002-.052.002-.074.002-.058.002-.077.002-.05.002-.087.003-.043.001-.126.004-.04.001-.09.003-.048.002-.081.003-.05.001-.08.003-.051.002-.08.003-.051.002-.073.002-.06.002-.07.003-.058.002-.07.003-.06.002-.075.003-.051.002-.09.004-.04.001-.13.005h-.01l-.116.005-.048.002-.08.004-.053.002-.075.003-.057.003-.072.003-.06.002-.066.003-.062.003-.071.003-.056.003-.077.003-.05.003-.087.004-.041.002-.089.004-.042.002-.126.006-.044.002-.084.004-.06.003-.066.004-.068.003-.059.003-.07.003-.059.004-.064.003-.064.003-.066.004-.06.003-.068.003-.058.004-.071.003-.057.003-.068.004-.065.004-.064.003-.056.003-.133.008-.06.003-.065.004-.064.004-.064.003-.063.004-.064.004-.065.004-.064.003-.062.004-.065.004-.064.004-.065.004-.06.004-.067.004-.062.004-.066.004-.062.004-.064.004-.076.005-.112.007-.062.004-.066.004-.062.004-.063.004-.065.005-.063.004-.065.005-.06.004-.068.004-.062.004-.067.005-.058.004-.072.005-.057.004-.074.005-.051.004-.087.006-.041.003-.12.008-.033.003-.099.007-.058.004-.073.006-.053.004-.072.005-.058.004-.07.006-.06.004-.065.005-.063.005-.068.005-.058.005-.073.005-.053.004-.079.007-.049.004-.084.006-.043.004-.116.009h-.011l-.128.011-.036.003-.09.007-.053.005-.073.006-.06.005-.067.005-.059.005-.069.006-.06.005-.067.006-.058.004-.069.006-.06.006-.07.006-.055.004-.08.007-.048.005-.094.008-.033.003-.122.01-.059.006-.07.006-.057.005-.069.007-.058.005-.07.006-.058.005-.07.007-.054.005-.077.007-.05.005-.074.006-.055.006-.073.006-.055.006-.071.007-.056.005-.071.007-.1.01-.079.007-.054.005-.073.007-.056.006-.07.007-.063.006-.061.006-.065.006-.062.007-.065.006-.061.006-.065.007-.06.006-.067.007-.062.006-.062.007-.072.007-.053.005a9.253 9.253 0 0 1-.095.01l-.031.003-.125.014-.044.004-.082.009-.058.006-.067.007-.06.006-.068.008-.059.006-.065.007-.062.007-.067.007-.056.006-.072.008-.055.006-.075.008-.051.006-.077.009-.05.005-.095.01-.03.004-.125.014-.045.005-.081.01-.054.006-.072.008-.057.006-.07.008-.054.007-.072.008-.057.007-.069.008-.058.007-.067.007-.059.007-.072.009-.052.006-.078.01-.048.005-.092.01-.033.005-.125.015-.034.004-.094.012-.042.005-.083.01-.051.006-.075.01-.052.006-.074.009-.053.007-.076.01-.049.005-.076.01-.051.006-.077.01-.049.006-.079.01-.048.006-.09.012-.035.004-.124.016-.043.006-.083.01-.051.007-.074.01-.055.007-.072.01-.053.006-.073.01-.054.007-.073.01-.052.007-.073.01-.054.007-.074.01-.05.006-.08.011-.046.007-.095.012-.03.005c-.043.005-.082.01-.125.017l-.016.002-.112.015-.026.004-.099.014-.04.005-.086.012-.046.006-.077.011-.052.008-.076.01-.049.007-.076.01-.05.008-.08.011-.045.007-.079.011-.048.007-.092.013-.03.005-.253.036-.04.006-.084.012-.05.008-.076.01-.047.008-.08.012-.046.006-.082.013-.042.006-.082.012-.047.007-.082.013-.04.006-.088.013-.04.006-.093.014-.032.005-.111.017-.024.004-.117.018-.033.005-.09.014-.046.007-.081.012-.043.007-.083.013-.043.007-.085.013-.04.006-.085.014-.042.006-.086.014-.04.006-.087.014-.038.006-.099.016-.026.004-.255.041-.005.001-.12.02-.024.004-.1.016-.035.006-.091.015-.036.006-.09.014-.038.007-.086.014-.043.007-.084.014-.038.006-.096.017-.028.004-.115.02-.01.001-.382.065-.02.003-.105.018-.03.005-.094.017-.035.006-.092.016-.034.006-.09.015-.036.007-.094.016-.031.005-.097.017-.029.005a9.066 9.066 0 0 0-.106.02l-.018.003-.379.067-.029.005-.096.017-.033.006-.09.017-.04.006-.087.016-.038.007-.086.016-.04.007-.088.016-.035.007-.097.018-.027.005-.11.02-.014.002-.381.071-.013.003-.112.02-.023.005-.102.02-.026.004-.1.02-.028.005-.096.018-.03.006-.1.019-.025.004-.101.02-.025.005-.117.022-.005.001-.382.074-.01.002-.115.023-.021.004-.105.02-.023.005-.102.02-.025.005-.099.02-.03.005-.096.02-.027.005-.103.02-.022.005-.116.023-.007.002-.383.077h-.001c-.042.01-.08.017-.124.026l-.013.002-.107.022-.03.006-.096.02-.03.006-.095.02-.03.006-.1.02-.021.005-.109.023-.016.003-.631.133-.008.002-.116.024-.017.004-.107.023-.022.005-.101.022-.026.005-.105.023-.017.003-.108.024-.018.003-.63.138h-.001l-.124.028-.01.002-.116.026-.01.002-.113.025-.016.004-.114.025-.01.002-.117.027-.008.002-.756.171-.01.003-.117.027-.008.002-.114.026-.016.004-.114.026-.007.002c-.338.078-.672.157-1.008.237l-.004.001-.123.03h-.002a166.245 166.245 0 0 0-20.678 6.405 10.667 10.667 0 1 0 7.632 19.92A145.43 145.43 0 0 1 445.125 64H448a1.167 1.167 0 0 1 .415.052 10.667 10.667 0 0 0 8.198-19.695q-.326-.135-.656-.26l-.003-.002-.059-.021-.002-.001-.059-.022-.002-.001-.058-.022-.005-.001-.056-.021-.005-.002-.056-.02-.006-.002-.056-.02-.006-.003-.055-.019-.008-.003-.052-.019-.011-.003-.052-.018-.01-.004-.052-.018-.01-.003-.053-.018-.009-.003-.053-.018-.01-.004-.052-.017-.009-.003-.054-.018-.009-.003-.052-.017-.01-.004-.05-.016-.014-.004-.048-.016-.014-.004-.049-.016-.011-.003-.05-.016-.014-.004-.048-.015-.013-.005-.05-.015-.014-.004-.048-.015-.015-.005-.047-.014-.018-.005-.044-.013-.02-.006-.045-.013-.018-.006-.045-.013-.02-.005-.044-.013-.02-.006-.043-.013-.021-.006-.044-.012-.02-.005-.044-.013-.02-.005-.045-.013-.02-.005-.043-.012-.022-.006-.043-.012-.02-.005-.044-.012-.021-.005-.044-.012-.021-.005-.043-.011-.022-.006-.04-.01-.025-.007-.04-.01-.024-.006-.04-.01-.025-.006-.036-.01-.03-.006-.035-.009-.03-.007-.035-.009-.03-.007-.036-.008-.028-.007-.036-.008-.03-.007-.036-.009-.027-.005-.038-.01-.027-.005-.039-.01-.026-.005-.037-.008-.03-.007-.037-.008-.025-.005-.04-.01-.024-.004-.044-.01-.021-.004-.044-.009-.023-.005-.045-.009-.021-.004-.044-.01-.022-.004-.045-.009-.022-.004-.044-.009-.023-.004-.044-.009-.022-.004-.045-.008-.022-.004-.045-.009-.022-.004-.044-.008-.023-.004-.045-.008-.021-.004-.046-.008-.02-.004-.048-.008-.018-.003-.045-.008-.024-.004-.044-.007-.02-.004-.046-.007-.021-.004-.048-.007-.018-.003-.046-.007-.022-.004-.047-.007-.017-.003-.05-.008-.017-.002-.05-.008-.014-.002-.052-.007-.016-.003-.052-.007-.015-.002-.052-.008-.016-.002-.053-.007-.015-.002-.053-.007-.015-.002-.053-.007-.015-.002-.053-.007-.015-.002-.054-.007-.014-.002-.053-.006-.017-.002-.052-.006-.015-.002-.054-.006-.015-.002-.054-.006-.014-.002-.054-.006-.015-.001-.054-.006-.014-.001-.055-.006-.013-.002-.057-.005-.01-.001-.057-.006-.015-.001-.055-.005-.013-.001-.057-.006h-.01l-.059-.006h-.01l-.059-.006h-.01l-.059-.006h-.008l-.06-.005h-.009l-.06-.005h-.007l-.06-.005h-.01l-.06-.005h-.009l-.06-.005h-.01l-.06-.004h-.009l-.06-.005h-.01l-.06-.004h-.01l-.06-.004h-.01l-.06-.003h-.009l-.06-.004h-.01l-.06-.003h-.01l-.061-.003h-.009l-.061-.003h-.009l-.061-.003h-.01l-.06-.002h-.01l-.061-.002h-.009l-.062-.002h-.009l-.062-.002h-.008l-.062-.002h-.008l-.063-.001h-.008l-.063-.001h-.007l-.064-.001h-.006l-.065-.001H448.139l-.068-.001H448z" style="fill:#9fe27c"/><path d="M472.624 32.418a10.667 10.667 0 0 0-8.14 17.554 20.31 20.31 0 0 1 4.85 13.268v3.641c0 92.518-75.269 167.786-167.786 167.786h-3.641a20.825 20.825 0 0 1-3.713-.33 10.667 10.667 0 0 0-3.8 20.991 41.98 41.98 0 0 0 5.064.602h.002l.054.003h.009l.052.003h.008l.054.003h.004c.094.006.189.01.283.015h.013l.045.002.019.001.041.002.022.001.04.002h.023l.04.003h.021l.04.002h.021l.142.006.022.001.036.001.029.001.034.001.028.001.035.001.03.001.034.001.028.001.035.001.03.001.033.001h.03l.058.002.036.001h.028l.036.002h.03l.034.001h.03l.034.001h.03l.034.001.03.001h.036l.028.001h.039l.025.001h.044l.023.001h.08l.043.001h.027l.039.001h.13l.024.001h3.835c104.447 0 189.119-84.67 189.119-189.118v-3.797l-.001-.038v-.156l-.001-.038v-.027l-.001-.042v-.095l-.002-.055v-.063l-.001-.027-.001-.038v-.064l-.001-.029v-.036l-.002-.027v-.065l-.002-.04v-.024l-.001-.043-.001-.021-.002-.063v-.02l-.001-.044-.002-.027v-.037l-.001-.028-.001-.035-.002-.03v-.036l-.002-.026v-.039l-.002-.026v-.04l-.002-.023-.001-.046-.001-.019a1.951 1.951 0 0 1-.003-.063v-.014l-.002-.05-.001-.022-.002-.043-.001-.022-.002-.04v-.026l-.003-.04-.001-.025-.001-.039-.002-.025-.002-.04-.001-.024-.002-.039-.001-.026-.004-.06v-.029l-.003-.035-.001-.03-.002-.033-.002-.03-.002-.034-.002-.03-.001-.032-.002-.032-.002-.032-.002-.032-.002-.032-.002-.03-.002-.035-.002-.03-.003-.045-.003-.04-.002-.038-.002-.027-.003-.037-.002-.028-.002-.034-.002-.03-.002-.034-.003-.03-.002-.032-.002-.031-.002-.032-.003-.033-.002-.023-.003-.04v-.004l-.007-.09-.002-.027-.003-.034-.003-.029-.002-.033-.002-.03-.003-.034-.002-.028-.004-.034-.002-.028-.003-.036-.002-.025-.003-.037-.003-.025-.002-.037-.002-.025-.006-.065-.003-.03-.003-.036-.002-.028-.004-.036-.002-.024-.004-.039-.002-.023-.004-.04-.002-.02-.005-.042-.002-.02-.003-.042-.002-.016-.005-.045v-.005l-.017-.16-.001-.015-.005-.04-.002-.022-.004-.04-.003-.021-.004-.039-.002-.024-.005-.038-.002-.022-.004-.04-.003-.02-.005-.043v-.005l-.018-.156-.002-.017-.006-.045-.002-.015-.005-.043-.002-.02-.006-.04-.002-.02-.005-.042-.002-.019-.006-.043v-.011l-.03-.223v-.003l-.007-.047-.002-.014-.006-.045-.002-.016-.005-.042-.003-.02-.006-.043-.002-.014-.006-.047-.002-.008-.048-.339-.001-.007-.007-.052-.002-.006-.008-.053v-.004q-.03-.202-.063-.403l-.009-.056v-.004l-.01-.055v-.002a41.748 41.748 0 0 0-9.343-20.242 10.644 10.644 0 0 0-8.15-3.78z" style="fill:#216600"/><path d="M239.085 251.582 426.667 64l16.915-16.915a15.085 15.085 0 0 1 21.333 21.333L448 85.333 260.418 272.915a15.086 15.086 0 0 1-21.333 0v-.001a15.084 15.084 0 0 1 0-21.332z" style="fill:#6ec030"/><rect x="405.333" y="42.667" width="21.333" height="64" rx="10.667" ry="10.667" transform="rotate(-180 416 74.667)" style="fill:#6ec030"/><rect x="298.667" y="128" width="21.333" height="85.333" rx="10.667" ry="10.667" transform="rotate(180 309.333 170.667)" style="fill:#6ec030"/><rect x="362.667" y="64" width="21.333" height="85.333" rx="10.667" ry="10.667" transform="rotate(-180 373.333 106.667)" style="fill:#6ec030"/><rect x="384" y="106.667" width="85.333" height="21.333" rx="10.667" ry="10.667" transform="rotate(-180 426.667 117.333)" style="fill:#6ec030"/><rect x="341.333" y="149.333" width="85.333" height="21.333" rx="10.667" ry="10.667" transform="rotate(-180 384 160)" style="fill:#6ec030"/><path d="M256 210.452c0-104.447-84.671-189.119-189.118-189.119H63.24A41.907 41.907 0 0 0 21.333 63.24v3.642C21.333 171.329 106.005 256 210.452 256h3.641A41.907 41.907 0 0 0 256 214.093v-3.641z" style="fill:#6ec030"/><rect x="42.667" y="128" width="85.333" height="21.333" rx="10.667" ry="10.667" style="fill:#4da900"/><rect x="85.333" y="170.667" width="85.333" height="21.333" rx="10.667" ry="10.667" style="fill:#4da900"/><path d="M230.249 230.249 85.333 85.333 68.418 68.418a15.085 15.085 0 0 0-21.333 21.333L64 106.667l144.915 144.915a15.086 15.086 0 0 0 21.334 0v-.001a15.084 15.084 0 0 0 0-21.332z" style="fill:#4da900"/><path d="M173.441 84.43a10.667 10.667 0 0 0-7.243 18.499 147.775 147.775 0 0 1 23.913 28.473 10.666 10.666 0 0 0 17.963-11.509q-3.84-5.966-8.157-11.573v-.001l-.303-.392-.009-.011-.072-.094-.004-.005-.218-.28-.019-.024a7.303 7.303 0 0 1-.065-.084l-.017-.022a71.575 71.575 0 0 0-.203-.259l-.028-.036-.058-.074-.03-.039-.192-.244-.032-.04-.054-.068-.04-.051-.048-.061-.074-.092-.052-.066a2.878 2.878 0 0 0-.048-.061l-.045-.057-.053-.066-.038-.047c-.028-.037-.057-.074-.087-.11L198.1 106l-.067-.083-.034-.044-.06-.074-.036-.045-.09-.112-.018-.023-.077-.096-.03-.036-.072-.09-.022-.027-.194-.241-.02-.025-.08-.098-.02-.025-.196-.242-.019-.022a8.744 8.744 0 0 0-.085-.106l-.013-.015-.205-.25-.004-.006-.097-.12-.009-.01a169.267 169.267 0 0 0-15.847-16.83l-.008-.008-.115-.106-.004-.003a10.628 10.628 0 0 0-7.237-2.834zM64 42.666H63.786l-.065.001h-.006l-.064.001h-.007l-.063.001h-.008l-.063.002h-.008l-.062.001h-.008l-.062.002h-.01l-.061.002h-.009l-.061.002h-.01l-.06.003h-.01l-.061.002h-.009l-.061.003h-.009l-.061.003h-.01l-.06.004h-.01l-.06.003h-.01l-.06.004h-.01l-.06.003h-.01l-.059.004-.01.001-.06.004h-.01l-.06.004h-.01l-.059.005h-.01l-.06.005h-.009l-.06.005h-.007l-.06.005h-.009l-.06.005-.008.001-.058.005h-.011l-.059.006h-.01l-.058.006-.011.001-.058.005-.012.001-.055.005-.015.002-.056.005-.011.001-.057.006-.013.001-.055.006-.014.001-.054.006-.015.002-.054.006-.014.001-.054.007-.015.001-.054.006-.015.002-.052.007-.017.002-.053.006-.014.002-.054.007-.015.002-.053.006-.015.002-.053.007-.015.002-.053.007-.015.002-.053.008-.016.002-.052.007-.015.002-.052.008-.016.002-.052.008-.014.002-.05.007-.017.003-.05.008-.017.002-.047.008-.022.003-.046.007-.018.003-.048.008-.02.003-.046.008-.021.003-.044.008-.024.004-.045.007-.018.003-.047.009-.021.004-.046.008-.021.004-.045.007-.023.005-.044.008-.022.004-.045.008-.022.004-.045.009-.022.004-.044.009-.023.004-.044.009-.022.004-.045.009-.022.004-.044.01-.022.004-.044.009-.023.005-.044.009-.02.004-.045.01-.023.004-.04.01-.026.005-.038.008-.029.006-.037.009-.026.005-.039.01-.027.005-.038.01-.027.005-.037.009-.029.006-.036.009-.028.007-.037.008-.028.007-.036.009-.03.007-.035.008-.03.008-.035.008-.026.007-.04.01-.024.006-.04.01-.024.006-.04.01-.023.006-.043.011-.021.006-.044.011-.02.006-.044.012-.021.005-.043.012-.022.006-.044.011-.02.006-.044.012-.02.006-.044.012-.02.006-.044.012-.02.006-.044.012-.02.006-.045.013-.02.006-.044.013-.018.005-.045.013-.02.006-.044.014-.018.005-.047.014-.015.005-.048.015-.015.004-.049.015-.013.004-.048.015-.014.005-.05.015-.011.004-.05.016-.013.004-.048.016-.014.004-.05.016-.01.003-.052.018-.01.003-.053.018-.009.002-.053.018-.01.003-.052.018-.01.003-.053.019-.009.003-.052.018-.01.003-.052.018-.01.004-.053.019-.008.003-.055.02-.006.001-.056.02-.006.002-.056.02-.005.002-.056.021-.005.002-.058.021-.002.001-.06.022-.001.001-.059.022-.003.001q-.33.125-.656.26a10.667 10.667 0 0 0 8.198 19.696A1.167 1.167 0 0 1 64 64h2.875a145.43 145.43 0 0 1 52.16 9.595 10.667 10.667 0 0 0 7.632-19.921 166.245 166.245 0 0 0-20.678-6.405h-.002l-.123-.03h-.004c-.337-.081-.67-.16-1.008-.238l-.008-.002-.114-.026-.015-.004-.114-.026-.009-.002-.115-.027-.012-.003-.755-.171-.008-.002-.117-.027-.01-.002-.114-.025-.016-.004-.114-.025-.009-.002-.117-.026-.009-.002-.124-.027-.631-.138-.018-.004-.109-.024-.016-.003-.105-.023-.026-.005-.101-.022-.022-.005-.107-.023-.017-.003-.117-.025-.007-.002-.631-.133-.017-.003a12.652 12.652 0 0 1-.108-.023l-.022-.004a10.819 10.819 0 0 1-.1-.02l-.03-.007-.095-.02-.03-.006-.095-.02-.03-.006-.107-.021-.013-.003a11.834 11.834 0 0 1-.124-.025h-.001l-.383-.078-.007-.001-.116-.024-.022-.004-.103-.02-.027-.006-.096-.02-.03-.005-.1-.02-.024-.005-.102-.02-.023-.004-.105-.02-.021-.005-.114-.023-.01-.002-.383-.074h-.005l-.117-.023-.025-.005-.102-.02-.024-.004-.1-.02-.03-.005-.096-.018-.028-.005-.1-.02-.026-.005-.102-.019-.023-.004-.112-.021-.013-.002-.381-.071-.013-.003-.111-.02-.027-.005-.097-.018-.035-.006-.087-.016-.041-.008-.086-.015-.038-.007-.088-.016-.038-.007-.09-.016-.034-.007-.096-.017-.03-.005-.378-.067-.018-.003a9.029 9.029 0 0 0-.106-.02l-.03-.004-.096-.017-.03-.006-.095-.016-.035-.006-.091-.016-.034-.006-.092-.016-.035-.006-.094-.016-.03-.005-.106-.018-.02-.004L94.86 45 94.85 45l-.114-.02-.028-.004-.096-.016-.038-.007-.084-.014-.043-.007-.086-.014-.039-.007-.089-.014-.036-.006-.09-.015-.037-.006-.099-.016-.024-.004-.12-.02h-.005l-.255-.042-.026-.004-.099-.015-.038-.007-.087-.013-.04-.007-.086-.014-.042-.006-.085-.013-.04-.007-.085-.013-.043-.007-.083-.013-.043-.006-.081-.013-.046-.007-.09-.014-.033-.005-.117-.018-.024-.004a13.361 13.361 0 0 1-.11-.017l-.033-.005-.092-.014-.04-.006-.088-.013-.04-.006-.083-.012-.047-.008-.082-.012-.042-.006-.082-.012-.046-.007-.08-.012-.047-.007-.076-.01-.05-.008-.083-.012-.041-.006-.252-.037-.03-.004-.093-.014-.048-.007-.08-.01-.045-.008-.08-.01-.049-.008-.076-.01-.05-.007-.075-.011-.052-.008-.077-.01-.046-.007-.085-.012-.041-.005-.099-.014-.026-.003-.112-.016-.016-.002a16.698 16.698 0 0 0-.125-.017l-.03-.004-.095-.013-.046-.006-.08-.011-.05-.007-.074-.01-.054-.007-.073-.01-.053-.007-.072-.01-.054-.007-.073-.01-.053-.006-.072-.01-.055-.007-.074-.01-.051-.006-.083-.011-.043-.006-.124-.016-.035-.004-.09-.011-.048-.007-.079-.01-.049-.006-.077-.01-.051-.006-.076-.01-.05-.005-.075-.01-.053-.007-.074-.009-.052-.006-.075-.01-.051-.006-.083-.01-.042-.005-.094-.011-.034-.005-.125-.015-.033-.004-.092-.01-.048-.006-.079-.01-.051-.006-.072-.009-.06-.006-.067-.008-.058-.007-.068-.008-.057-.007-.072-.008-.054-.006-.07-.008-.057-.007-.072-.008-.054-.006-.081-.01-.045-.005-.125-.014-.03-.003-.095-.01-.05-.006-.077-.009-.051-.005-.075-.009-.055-.006-.072-.008-.056-.006-.067-.007-.062-.007-.066-.007-.058-.006-.068-.007-.06-.007-.067-.007-.058-.006-.082-.009-.044-.004-.125-.013-.031-.004a9.402 9.402 0 0 1-.095-.01l-.053-.005-.072-.007-.062-.007-.062-.006-.067-.007-.06-.006-.065-.006-.06-.007-.066-.006-.062-.006-.065-.007-.062-.006-.062-.006-.07-.007-.056-.006-.073-.006-.054-.006-.078-.007-.1-.01-.072-.007-.056-.005-.071-.007-.055-.005-.073-.007-.055-.005-.073-.007-.05-.005-.078-.007-.054-.005-.07-.006-.057-.005-.07-.007-.06-.005-.068-.006-.057-.006-.07-.006-.059-.005-.122-.011-.033-.003-.094-.008-.048-.004-.08-.008-.054-.004-.07-.006-.061-.005-.069-.006-.058-.005-.068-.006-.06-.005-.068-.006-.06-.005-.066-.005-.06-.005-.073-.006-.054-.005-.09-.007-.035-.003-.128-.01-.011-.001-.116-.01-.044-.003-.084-.006-.048-.004-.08-.006-.053-.005-.072-.005-.058-.005-.068-.005-.063-.005-.065-.005-.06-.004-.07-.005-.058-.005-.072-.005-.054-.004-.072-.005-.058-.004-.099-.008-.032-.002a15.222 15.222 0 0 1-.12-.009l-.042-.003-.087-.006-.05-.003-.076-.006-.056-.004-.072-.005-.058-.004-.067-.005-.062-.003-.067-.005-.061-.004-.065-.005-.063-.004-.065-.004-.064-.004-.06-.004-.067-.005-.062-.004a13.2 13.2 0 0 1-.112-.007l-.076-.005-.064-.004-.062-.004-.066-.004-.062-.004-.066-.004-.062-.004-.064-.004-.064-.003-.066-.004-.062-.004-.063-.004-.065-.004-.064-.004-.063-.003-.064-.004-.065-.004-.064-.003-.06-.004-.133-.007-.056-.003-.064-.004-.065-.003-.068-.004-.057-.003-.071-.004-.058-.003-.068-.004-.06-.003-.066-.004-.064-.003-.064-.003-.06-.003-.07-.004-.059-.003-.067-.003-.065-.003-.062-.004-.084-.003-.043-.003-.127-.006-.041-.002-.089-.004-.041-.002-.088-.004-.05-.002-.077-.004-.055-.002-.072-.003-.06-.003-.068-.003-.06-.003-.071-.003-.057-.002-.075-.003-.053-.003-.08-.003-.048-.002-.116-.005h-.01a16.976 16.976 0 0 1-.13-.006l-.04-.001-.09-.004-.051-.002-.075-.002-.06-.003-.07-.002-.058-.003-.07-.002-.06-.002-.073-.003-.052-.002-.079-.003-.05-.002-.082-.002-.049-.002-.081-.003-.048-.001-.09-.003-.04-.002-.126-.003-.043-.002-.087-.003-.05-.001-.077-.003-.057-.001-.075-.002-.052-.002-.076-.002-.058-.002-.072-.002-.056-.001-.073-.003h-.057l-.075-.003-.053-.001-.076-.002-.055-.002-.091-.002-.036-.001a22.193 22.193 0 0 1-.131-.003h-.003l-.128-.003h-.027l-.1-.003-.047-.001-.083-.002-.05-.001-.079-.002h-.053l-.076-.002-.056-.002-.07-.001-.06-.001-.075-.002h-.052l-.086-.002-.043-.001-.102-.002h-.028a15.646 15.646 0 0 0-.13-.002h-.025l-.105-.002h-.042l-.088-.002h-.05l-.079-.002h-.054l-.074-.002h-.06l-.07-.001h-.055l-.08-.002h-.05l-.083-.001h-.046l-.086-.001h-.046l-.098-.002h-.16l-.02-.001H68.1l-.045-.001h-.084l-.053-.001h-.13l-.077-.001h-.131l-.055-.001H67.319l-.055-.001H64z" style="fill:#9fe27c"/><path d="M39.376 32.418a10.644 10.644 0 0 0-8.15 3.78 41.748 41.748 0 0 0-9.344 20.242v.002l-.009.055v.004l-.01.056q-.032.201-.062.403v.004l-.009.053-.001.006-.007.053-.001.006-.049.339v.008l-.007.047-.002.014-.006.043-.003.02-.006.042-.002.016-.006.045-.002.014a1.098 1.098 0 0 0-.006.047v.003l-.03.223v.01l-.006.044-.003.02-.005.042-.002.018-.005.04-.003.021-.005.043-.001.015-.006.045-.002.017-.018.156v.005l-.005.042-.003.022-.004.039-.002.022-.005.038-.003.024-.004.039-.002.021-.005.04-.002.022-.004.04-.002.016c-.005.053-.01.106-.017.16v.004l-.005.046-.001.015-.004.043-.002.02-.004.041-.002.02-.004.04-.002.023-.004.039-.002.024-.004.036-.003.028-.002.035-.004.031-.006.065-.002.025-.003.037-.002.025-.004.037-.002.026-.003.035-.002.028-.003.034-.002.028-.003.035-.002.029-.003.033-.003.03-.002.033-.003.028-.006.09v.003l-.004.04-.002.023-.002.034-.002.031-.003.03-.002.033-.002.03-.002.034-.002.03-.003.034-.002.028-.002.038-.002.026-.002.038-.004.04-.002.046-.002.03-.002.034-.002.03-.002.032-.002.032-.002.032-.002.032-.002.031-.002.031-.002.034-.002.03-.002.034v.03l-.003.035-.001.028-.003.06-.002.027-.002.038-.001.025-.002.04-.001.024-.002.04v.025l-.003.039-.001.026-.001.04-.002.022-.002.043v.023l-.002.049-.001.014-.003.063v.019l-.002.046-.001.023-.001.04v.026l-.002.039-.002.026v.037l-.001.029-.002.035v.028l-.001.037-.001.027-.001.043v.021l-.003.063v.021l-.001.043v.024l-.002.04v.027l-.001.038v.027l-.002.036v.093l-.001.038-.001.027v.063l-.002.055v.095l-.001.042v.027l-.001.038v.156l-.001.038v3.797C21.333 171.329 106.005 256 210.452 256h3.899l.026-.001h.129l.045-.002H214.653l.044-.001h.025l.039-.001h.028l.036-.001h.03l.033-.001.031-.001h.034l.03-.001.035-.001h.029l.036-.001.028-.001.035-.001.06-.002h.029l.033-.001.03-.001.035-.001.028-.001.035-.001.028-.001.036-.001.028-.001.034-.001.03-.001.035-.001.022-.001.142-.006h.02l.04-.002h.022l.04-.002.023-.001.04-.002.022-.001.041-.002.02-.001.043-.002h.013l.284-.015h.004l.054-.003h.008l.052-.003h.009l.054-.004h.002a41.98 41.98 0 0 0 5.063-.6 10.667 10.667 0 1 0-3.8-20.993 20.825 20.825 0 0 1-3.712.33h-3.641c-92.517 0-167.785-75.268-167.785-167.785v-3.64a20.31 20.31 0 0 1 4.849-13.27 10.667 10.667 0 0 0-8.14-17.553z" style="fill:#4da900"/><path d="M272.915 251.582 85.333 64 68.418 47.085a15.085 15.085 0 0 0-21.333 21.333L64 85.333l187.582 187.582a15.086 15.086 0 0 0 21.333 0v-.001a15.084 15.084 0 0 0 0-21.332z" style="fill:#8ccd5b"/><rect x="85.333" y="42.667" width="21.333" height="64" rx="10.667" ry="10.667" style="fill:#8ccd5b"/><rect x="192" y="128" width="21.333" height="85.333" rx="10.667" ry="10.667" style="fill:#8ccd5b"/><rect x="128" y="64" width="21.333" height="85.333" rx="10.667" ry="10.667" style="fill:#8ccd5b"/><rect x="42.667" y="106.667" width="85.333" height="21.333" rx="10.667" ry="10.667" style="fill:#8ccd5b"/><rect x="85.333" y="149.333" width="85.333" height="21.333" rx="10.667" ry="10.667" style="fill:#8ccd5b"/><path d="M128 490.667h256A42.667 42.667 0 0 0 426.667 448v-1.247a42.445 42.445 0 0 0-17.356-34.389 261.322 261.322 0 0 0-306.622 0 42.445 42.445 0 0 0-17.356 34.389V448A42.667 42.667 0 0 0 128 490.667z" style="fill:#4d2100"/><path d="M256 362.667h-.67l-.19.001h-.02l-.197.001h-.008l-.199.001h-.024l-.194.001h-.026l-.191.001h-.032l-.195.002h-.005c-.068 0-.131 0-.198.002h-.02l-.193.001h-.029l-.185.002h-.038l-.187.002h-.025l-.199.003h-.002l-.198.002h-.023l-.187.003h-.037l-.184.003h-.033l-.19.003h-.018l-.198.003h-.007l-.196.004h-.026l-.19.003h-.029l-.19.004h-.025l-.197.004h-.01l-.193.004h-.02l-.192.004h-.026l-.188.004-.033.001-.19.004h-.017l-.202.005h-.005l-.198.005h-.017l-.189.005h-.034l-.184.005h-.032l-.184.006h-.034l-.18.005h-.014l-.193.006h-.025a36.8 36.8 0 0 0-.191.006h-.025l-.194.006h-.018l-.2.007h-.004l-.208.006h-.003l-.198.006-.022.001-.186.006h-.035l-.185.007-.025.001-.194.007h-.01l-.192.006-.019.001-.188.007h-.03l-.188.007-.024.001-.192.007-.02.001-.393.015-.024.001a36.09 36.09 0 0 0-.19.008h-.025a34.15 34.15 0 0 0-.187.008l-.029.001-.19.008h-.013l-.198.009h-.006l-.196.008-.02.001-.192.008-.023.002-.19.008-.025.001-.191.009h-.011l-.192.009h-.014l-.192.01h-.024l-.187.01h-.028l-.186.01h-.026l-.192.01h-.003l-.19.01-.026.001-.186.01h-.028l-.18.01-.037.002-.185.01h-.01l-.2.01h-.003l-.2.011-.013.001-.189.01-.03.002-.187.01-.018.002-.197.01h-.002l-.407.024h-.015l-.195.012-.015.001-.198.012h-.006l-.408.025h-.006l-.197.012-.016.001-.192.012-.02.002-.194.012h-.007l-.203.013c-.064.004-.135.01-.2.013h-.01l-.192.013-.023.002-.19.013h-.016l-.195.014h-.007l-.397.027-.02.002-.191.013h-.015l-.192.015h-.019l-.398.03h-.003l-.196.014h-.017l-.19.015-.019.001-.192.015h-.01l-.395.03-.015.001-.185.015-.027.002-.187.014-.016.001-.6.048h-.01l-.196.017h-.01l-.196.017h-.009l-.401.033h-.004l-.199.017-.007.001c-.068.005-.13.01-.197.017h-.009l-.604.052h-.005l-.195.018-.013.001-.192.017-.013.001-.601.054h-.003l-.199.019h-.007l-.198.019h-.004l-.604.057h-.003l-.196.019-.012.001a201.4 201.4 0 0 0-.798.078h-.007l-.8.082h-.008l-.192.02-.01.001a260.369 260.369 0 0 0-76.815 20.115 32 32 0 0 0 25.482 58.708A196.18 196.18 0 0 1 256 426.667a32 32 0 0 0 0-64z" style="fill:#69341c"/></g></svg>